{
  "accessors": [
    {
      "bufferView": 2,
      "componentType": 5126,
      "count": 654,
      "max": [
        0.2994268536567688,
        0.29863810539245605,
        0.07500001043081284
      ],
      "min": [
        -0.29943838715553284,
        -0.29849886894226074,
        -0.07500001043081284
      ],
      "type": "VEC3"
    },
    {
      "bufferView": 2,
      "byteOffset": 7848,
      "componentType": 5126,
      "count": 654,
      "max": [
        0.999984085559845,
        0.9999797940254211,
        0.9999992847442627
      ],
      "min": [
        -0.9999845027923584,
        -0.9999854564666748,
        -1.0
      ],
      "type": "VEC3"
    },
    {
      "bufferView": 3,
      "componentType": 5126,
      "count": 654,
      "max": [
        0.9999082684516907,
        0.9999894499778748,
        0.9929080009460449,
        1.0
      ],
      "min": [
        -0.9999966621398926,
        -0.9999923706054688,
        -0.9945948719978333,
        1.0
      ],
      "type": "VEC4"
    },
    {
      "bufferView": 1,
      "componentType": 5126,
      "count": 654,
      "max": [
        0.9339244365692139,
        0.9975666403770447
      ],
      "min": [
        0.0024315789341926575,
        0.0024260671343654394
      ],
      "type": "VEC2"
    },
    {
      "bufferView": 1,
      "byteOffset": 5232,
      "componentType": 5126,
      "count": 654,
      "max": [
        0.9339244365692139,
        0.9975666403770447
      ],
      "min": [
        0.0024315789341926575,
        0.0024260671343654394
      ],
      "type": "VEC2"
    },
    {
      "bufferView": 1,
      "byteOffset": 10464,
      "componentType": 5126,
      "count": 654,
      "max": [
        0.9339244365692139,
        0.9975666403770447
      ],
      "min": [
        0.0024315789341926575,
        0.0024260671343654394
      ],
      "type": "VEC2"
    },
    {
      "bufferView": 0,
      "componentType": 5125,
      "count": 2928,
      "type": "SCALAR"
    }
  ],
  "asset": {
    "extras": {
      "author": "dukat.andrej (https://sketchfab.com/dukat.andrej)",
      "license": "CC-BY-4.0 (http://creativecommons.org/licenses/by/4.0/)",
      "source": "https://sketchfab.com/3d-models/stone-mill-wheel-c4731bab20764f5eb874daf3ff07fcb5",
      "title": "Stone Mill Wheel"
    },
    "generator": "Sketchfab-12.68.0",
    "version": "2.0"
  },
  "bufferViews": [
    {
      "buffer": 0,
      "byteLength": 11712,
      "name": "floatBufferViews",
      "target": 34963
    },
    {
      "buffer": 0,
      "byteLength": 15696,
      "byteOffset": 11712,
      "byteStride": 8,
      "name": "floatBufferViews",
      "target": 34962
    },
    {
      "buffer": 0,
      "byteLength": 15696,
      "byteOffset": 27408,
      "byteStride": 12,
      "name": "floatBufferViews",
      "target": 34962
    },
    {
      "buffer": 0,
      "byteLength": 10464,
      "byteOffset": 43104,
      "byteStride": 16,
      "name": "floatBufferViews",
      "target": 34962
    }
  ],
  "buffers": [
    {
      "byteLength": 53568,
      "uri": "scene.bin"
    }
  ],
  "images": [
    {
      "uri": "textures/Normal_Map_baseColor.png"
    },
    {
      "uri": "textures/Normal_Map_metallicRoughness.png"
    },
    {
      "uri": "textures/Normal_Map_normal.png"
    }
  ],
  "materials": [
    {
      "doubleSided": true,
      "name": "Normal_Map",
      "normalTexture": {
        "index": 2
      },
      "occlusionTexture": {
        "index": 1
      },
      "pbrMetallicRoughness": {
        "baseColorTexture": {
          "index": 0
        },
        "metallicFactor": 0.0,
        "metallicRoughnessTexture": {
          "index": 1
        }
      }
    }
  ],
  "meshes": [
    {
      "name": "Lp_Normal_Map_0",
      "primitives": [
        {
          "attributes": {
            "NORMAL": 1,
            "POSITION": 0,
            "TANGENT": 2,
            "TEXCOORD_0": 3,
            "TEXCOORD_1": 4,
            "TEXCOORD_2": 5
          },
          "indices": 6,
          "material": 0,
          "mode": 4
        }
      ]
    }
  ],
  "nodes": [
    {
      "children": [
        1
      ],
      "matrix": [
        1.0,
        0.0,
        0.0,
        0.0,
        0.0,
        2.220446049250313e-16,
        -1.0,
        0.0,
        0.0,
        1.0,
        2.220446049250313e-16,
        0.0,
        0.0,
        0.0,
        0.0,
        1.0
      ],
      "name": "Sketchfab_model"
    },
    {
      "children": [
        2
      ],
      "matrix": [
        1.0,
        0.0,
        0.0,
        0.0,
        0.0,
        0.0,
        1.0,
        0.0,
        0.0,
        -1.0,
        0.0,
        0.0,
        0.0,
        0.0,
        0.0,
        1.0
      ],
      "name": "0f2e74cf9b1e432197227e0e9b0cd31d.fbx"
    },
    {
      "children": [
        3
      ],
      "name": "RootNode"
    },
    {
      "children": [
        4
      ],
      "matrix": [
        100.0,
        0.0,
        0.0,
        0.0,
        0.0,
        -1.629206793918314e-05,
        -99.99999999999868,
        0.0,
        0.0,
        99.99999999999868,
        -1.629206793918314e-05,
        0.0,
        0.0,
        0.0,
        0.0,
        1.0
      ],
      "name": "Lp"
    },
    {
      "mesh": 0,
      "name": "Lp_Normal_Map_0"
    }
  ],
  "samplers": [
    {
      "magFilter": 9729,
      "minFilter": 9987,
      "wrapS": 10497,
      "wrapT": 10497
    }
  ],
  "scene": 0,
  "scenes": [
    {
      "name": "Sketchfab_Scene",
      "nodes": [
        0
      ]
    }
  ],
  "textures": [
    {
      "sampler": 0,
      "source": 0
    },
    {
      "sampler": 0,
      "source": 1
    },
    {
      "sampler": 0,
      "source": 2
    }
  ]
}
