{
  "accessors": [
    {
      "bufferView": 2,
      "componentType": 5126,
      "count": 284,
      "max": [
        -60.97902297973633,
        31.75727653503418,
        78.47991943359375
      ],
      "min": [
        -70.4031982421875,
        18.450387954711914,
        77.55955505371094
      ],
      "type": "VEC3"
    },
    {
      "bufferView": 2,
      "byteOffset": 3408,
      "componentType": 5126,
      "count": 284,
      "max": [
        0.993489146232605,
        0.9812133312225342,
        1.0
      ],
      "min": [
        -0.9674452543258667,
        -0.9907413721084595,
        -1.0
      ],
      "type": "VEC3"
    },
    {
      "bufferView": 3,
      "componentType": 5126,
      "count": 284,
      "max": [
        0.9999997019767761,
        0.9978132247924805,
        0.9914296269416809,
        1.0
      ],
      "min": [
        -0.9999996423721313,
        -0.8381713032722473,
        -0.9926906228065491,
        1.0
      ],
      "type": "VEC4"
    },
    {
      "bufferView": 1,
      "componentType": 5126,
      "count": 284,
      "max": [
        0.9951170086860657,
        0.9205160140991211
      ],
      "min": [
        0.004883000161498785,
        0.004883000161498785
      ],
      "type": "VEC2"
    },
    {
      "bufferView": 0,
      "componentType": 5125,
      "count": 948,
      "type": "SCALAR"
    }
  ],
  "asset": {
    "extras": {
      "author": "Bharath (https://sketchfab.com/sneeky)",
      "license": "CC-BY-4.0 (http://creativecommons.org/licenses/by/4.0/)",
      "source": "https://sketchfab.com/3d-models/chinese-signboard-d413ef470a42432ba30ece881e6c76a3",
      "title": "chinese signboard"
    },
    "generator": "Sketchfab-12.67.0",
    "version": "2.0"
  },
  "bufferViews": [
    {
      "buffer": 0,
      "byteLength": 3792,
      "name": "floatBufferViews",
      "target": 34963
    },
    {
      "buffer": 0,
      "byteLength": 2272,
      "byteOffset": 3792,
      "byteStride": 8,
      "name": "floatBufferViews",
      "target": 34962
    },
    {
      "buffer": 0,
      "byteLength": 6816,
      "byteOffset": 6064,
      "byteStride": 12,
      "name": "floatBufferViews",
      "target": 34962
    },
    {
      "buffer": 0,
      "byteLength": 4544,
      "byteOffset": 12880,
      "byteStride": 16,
      "name": "floatBufferViews",
      "target": 34962
    }
  ],
  "buffers": [
    {
      "byteLength": 17424,
      "uri": "scene.bin"
    }
  ],
  "images": [
    {
      "uri": "textures/m_storeboard001_baseColor.jpeg"
    },
    {
      "uri": "textures/m_storeboard001_metallicRoughness.png"
    },
    {
      "uri": "textures/m_storeboard001_normal.png"
    }
  ],
  "materials": [
    {
      "doubleSided": true,
      "name": "m_storeboard001",
      "normalTexture": {
        "index": 2
      },
      "occlusionTexture": {
        "index": 1
      },
      "pbrMetallicRoughness": {
        "baseColorTexture": {
          "index": 0
        },
        "metallicRoughnessTexture": {
          "index": 1
        },
        "roughnessFactor": 0.43340234329873717
      }
    }
  ],
  "meshes": [
    {
      "name": "defaultMaterial",
      "primitives": [
        {
          "attributes": {
            "NORMAL": 1,
            "POSITION": 0,
            "TANGENT": 2,
            "TEXCOORD_0": 3
          },
          "indices": 4,
          "material": 0,
          "mode": 4
        }
      ]
    }
  ],
  "nodes": [
    {
      "children": [
        1
      ],
      "matrix": [
        1.0,
        0.0,
        0.0,
        0.0,
        0.0,
        2.220446049250313e-16,
        -1.0,
        0.0,
        0.0,
        1.0,
        2.220446049250313e-16,
        0.0,
        0.0,
        0.0,
        0.0,
        1.0
      ],
      "name": "Sketchfab_model"
    },
    {
      "children": [
        2
      ],
      "matrix": [
        1.0,
        0.0,
        0.0,
        0.0,
        0.0,
        -4.371139006309477e-08,
        0.999999999999999,
        0.0,
        0.0,
        -0.999999999999999,
        -4.371139006309477e-08,
        0.0,
        0.0,
        0.0,
        0.0,
        1.0
      ],
      "name": "Collada visual scene group"
    },
    {
      "children": [
        3
      ],
      "matrix": [
        1.0,
        0.0,
        0.0,
        0.0,
        0.0,
        1.0,
        0.0,
        0.0,
        0.0,
        0.0,
        1.0,
        0.0,
        65.691116,
        -25.103832,
        -78.019737,
        1.0
      ],
      "name": "sm_store_board_01"
    },
    {
      "mesh": 0,
      "name": "defaultMaterial"
    }
  ],
  "samplers": [
    {
      "magFilter": 9729,
      "minFilter": 9987,
      "wrapS": 10497,
      "wrapT": 10497
    }
  ],
  "scene": 0,
  "scenes": [
    {
      "name": "Sketchfab_Scene",
      "nodes": [
        0
      ]
    }
  ],
  "textures": [
    {
      "sampler": 0,
      "source": 0
    },
    {
      "sampler": 0,
      "source": 1
    },
    {
      "sampler": 0,
      "source": 2
    }
  ]
}
