{
  "accessors": [
    {
      "bufferView": 2,
      "componentType": 5126,
      "count": 585,
      "max": [
        69.8345947265625,
        81.35069274902344,
        265.60479736328125
      ],
      "min": [
        -72.83232879638672,
        -81.9310302734375,
        181.61758422851563
      ],
      "type": "VEC3"
    },
    {
      "bufferView": 2,
      "byteOffset": 7020,
      "componentType": 5126,
      "count": 585,
      "max": [
        1.0,
        0.7304157018661499,
        0.7407934665679932
      ],
      "min": [
        -1.0,
        -0.7304485440254211,
        -0.7392742037773132
      ],
      "type": "VEC3"
    },
    {
      "bufferView": 3,
      "componentType": 5126,
      "count": 585,
      "max": [
        1.0,
        0.7431540489196777,
        0.7432280778884888,
        1.0
      ],
      "min": [
        -0.13172107934951782,
        -0.7431401014328003,
        -0.7431521415710449,
        1.0
      ],
      "type": "VEC4"
    },
    {
      "bufferView": 1,
      "componentType": 5126,
      "count": 585,
      "max": [
        0.999500036239624,
        0.9986637830734253
      ],
      "min": [
        0.0005000000237487257,
        0.0005000000237487257
      ],
      "type": "VEC2"
    },
    {
      "bufferView": 1,
      "byteOffset": 4680,
      "componentType": 5126,
      "count": 585,
      "max": [
        0.999500036239624,
        0.9986637830734253
      ],
      "min": [
        0.0005000000237487257,
        0.0005000000237487257
      ],
      "type": "VEC2"
    },
    {
      "bufferView": 0,
      "componentType": 5125,
      "count": 588,
      "type": "SCALAR"
    },
    {
      "bufferView": 2,
      "byteOffset": 14040,
      "componentType": 5126,
      "count": 13554,
      "max": [
        4.709999084472656,
        7.346017360687256,
        154.53359985351563
      ],
      "min": [
        -21.534160614013672,
        -34.309810638427734,
        99.47499084472656
      ],
      "type": "VEC3"
    },
    {
      "bufferView": 2,
      "byteOffset": 176688,
      "componentType": 5126,
      "count": 13554,
      "max": [
        0.9991966485977173,
        0.9907918572425842,
        0.9949324727058411
      ],
      "min": [
        -0.9998395442962646,
        -0.9990599155426025,
        -0.9993305206298828
      ],
      "type": "VEC3"
    },
    {
      "bufferView": 3,
      "byteOffset": 9360,
      "componentType": 5126,
      "count": 13554,
      "max": [
        0.9999111890792847,
        0.9992641806602478,
        0.9983684420585632,
        1.0
      ],
      "min": [
        -0.9999915361404419,
        -0.9999713897705078,
        -0.9993382692337036,
        -1.0
      ],
      "type": "VEC4"
    },
    {
      "bufferView": 1,
      "byteOffset": 9360,
      "componentType": 5126,
      "count": 13554,
      "max": [
        1.3098489046096802,
        115.16474914550781
      ],
      "min": [
        -0.11593318730592728,
        -108.18885803222656
      ],
      "type": "VEC2"
    },
    {
      "bufferView": 1,
      "byteOffset": 117792,
      "componentType": 5126,
      "count": 13554,
      "max": [
        1.3098489046096802,
        115.16474914550781
      ],
      "min": [
        -0.11593318730592728,
        -108.18885803222656
      ],
      "type": "VEC2"
    },
    {
      "bufferView": 0,
      "byteOffset": 2352,
      "componentType": 5125,
      "count": 13554,
      "type": "SCALAR"
    },
    {
      "bufferView": 2,
      "byteOffset": 339336,
      "componentType": 5126,
      "count": 6458,
      "max": [
        119.06448364257813,
        68.14522552490234,
        202.64768981933594
      ],
      "min": [
        -57.294532775878906,
        -68.73656463623047,
        87.47898864746094
      ],
      "type": "VEC3"
    },
    {
      "bufferView": 2,
      "byteOffset": 416832,
      "componentType": 5126,
      "count": 6458,
      "max": [
        1.0,
        1.0,
        1.0
      ],
      "min": [
        -1.0,
        -1.0,
        -1.0
      ],
      "type": "VEC3"
    },
    {
      "bufferView": 3,
      "byteOffset": 226224,
      "componentType": 5126,
      "count": 6458,
      "max": [
        1.0,
        1.0,
        1.0,
        1.0
      ],
      "min": [
        -1.0,
        -1.0,
        -1.0,
        -1.0
      ],
      "type": "VEC4"
    },
    {
      "bufferView": 1,
      "byteOffset": 226224,
      "componentType": 5126,
      "count": 6458,
      "max": [
        0.9930845499038696,
        0.9977266788482666
      ],
      "min": [
        0.0024999999441206455,
        0.0024999999441206455
      ],
      "type": "VEC2"
    },
    {
      "bufferView": 1,
      "byteOffset": 277888,
      "componentType": 5126,
      "count": 6458,
      "max": [
        0.9930845499038696,
        0.9977266788482666
      ],
      "min": [
        0.0024999999441206455,
        0.0024999999441206455
      ],
      "type": "VEC2"
    },
    {
      "bufferView": 0,
      "byteOffset": 56568,
      "componentType": 5125,
      "count": 7074,
      "type": "SCALAR"
    },
    {
      "bufferView": 2,
      "byteOffset": 494328,
      "componentType": 5126,
      "count": 572,
      "max": [
        60.21345901489258,
        59.518123626708984,
        88.86578369140625
      ],
      "min": [
        -59.906700134277344,
        -60.50230407714844,
        3.932262420654297
      ],
      "type": "VEC3"
    },
    {
      "bufferView": 2,
      "byteOffset": 501192,
      "componentType": 5126,
      "count": 572,
      "max": [
        1.0,
        1.0,
        0.9928283095359802
      ],
      "min": [
        -1.0,
        -1.0,
        -0.9999619126319885
      ],
      "type": "VEC3"
    },
    {
      "bufferView": 3,
      "byteOffset": 329552,
      "componentType": 5126,
      "count": 572,
      "max": [
        1.0,
        1.0,
        0.9236299395561218,
        1.0
      ],
      "min": [
        -1.0,
        -1.0,
        -0.9238256812095642,
        1.0
      ],
      "type": "VEC4"
    },
    {
      "bufferView": 1,
      "byteOffset": 329552,
      "componentType": 5126,
      "count": 572,
      "max": [
        0.999500036239624,
        0.85355144739151
      ],
      "min": [
        0.0005000000237487257,
        0.0005000000237487257
      ],
      "type": "VEC2"
    },
    {
      "bufferView": 0,
      "byteOffset": 84864,
      "componentType": 5125,
      "count": 2448,
      "type": "SCALAR"
    }
  ],
  "asset": {
    "extras": {
      "author": "Lyskilde (https://sketchfab.com/longtail)",
      "license": "CC-BY-4.0 (http://creativecommons.org/licenses/by/4.0/)",
      "source": "https://sketchfab.com/3d-models/stone-well-885951c7fc0646f4bb5b136475ee2f6c",
      "title": "Stone well"
    },
    "generator": "Sketchfab-12.65.0",
    "version": "2.0"
  },
  "bufferViews": [
    {
      "buffer": 0,
      "byteLength": 94656,
      "name": "floatBufferViews",
      "target": 34963
    },
    {
      "buffer": 0,
      "byteLength": 334128,
      "byteOffset": 94656,
      "byteStride": 8,
      "name": "floatBufferViews",
      "target": 34962
    },
    {
      "buffer": 0,
      "byteLength": 508056,
      "byteOffset": 428784,
      "byteStride": 12,
      "name": "floatBufferViews",
      "target": 34962
    },
    {
      "buffer": 0,
      "byteLength": 338704,
      "byteOffset": 936840,
      "byteStride": 16,
      "name": "floatBufferViews",
      "target": 34962
    }
  ],
  "buffers": [
    {
      "byteLength": 1275544,
      "uri": "scene.bin"
    }
  ],
  "images": [
    {
      "uri": "textures/material_baseColor.png"
    },
    {
      "uri": "textures/material_metallicRoughness.png"
    },
    {
      "uri": "textures/material_normal.png"
    },
    {
      "uri": "textures/Wire_baseColor.png"
    },
    {
      "uri": "textures/Wire_normal.png"
    },
    {
      "uri": "textures/Details_baseColor.png"
    },
    {
      "uri": "textures/Details_metallicRoughness.png"
    },
    {
      "uri": "textures/Details_normal.png"
    },
    {
      "uri": "textures/WellTube_baseColor.png"
    },
    {
      "uri": "textures/WellTube_metallicRoughness.png"
    },
    {
      "uri": "textures/WellTube_normal.png"
    }
  ],
  "materials": [
    {
      "doubleSided": true,
      "name": "material",
      "normalTexture": {
        "index": 2
      },
      "occlusionTexture": {
        "index": 1
      },
      "pbrMetallicRoughness": {
        "baseColorTexture": {
          "index": 0
        },
        "metallicRoughnessTexture": {
          "index": 1
        }
      }
    },
    {
      "doubleSided": true,
      "name": "Wire",
      "normalTexture": {
        "index": 4
      },
      "pbrMetallicRoughness": {
        "baseColorTexture": {
          "index": 3
        },
        "metallicFactor": 0.0,
        "roughnessFactor": 0.5984495402758597
      }
    },
    {
      "doubleSided": true,
      "name": "Details",
      "normalTexture": {
        "index": 7
      },
      "occlusionTexture": {
        "index": 6
      },
      "pbrMetallicRoughness": {
        "baseColorTexture": {
          "index": 5
        },
        "metallicRoughnessTexture": {
          "index": 6
        }
      }
    },
    {
      "doubleSided": true,
      "name": "WellTube",
      "normalTexture": {
        "index": 10
      },
      "occlusionTexture": {
        "index": 9
      },
      "pbrMetallicRoughness": {
        "baseColorTexture": {
          "index": 8
        },
        "metallicFactor": 0.0,
        "metallicRoughnessTexture": {
          "index": 9
        }
      }
    }
  ],
  "meshes": [
    {
      "name": "Well_Top_0",
      "primitives": [
        {
          "attributes": {
            "NORMAL": 1,
            "POSITION": 0,
            "TANGENT": 2,
            "TEXCOORD_0": 3,
            "TEXCOORD_1": 4
          },
          "indices": 5,
          "material": 0,
          "mode": 4
        }
      ]
    },
    {
      "name": "Well_Wire_0",
      "primitives": [
        {
          "attributes": {
            "NORMAL": 7,
            "POSITION": 6,
            "TANGENT": 8,
            "TEXCOORD_0": 9,
            "TEXCOORD_1": 10
          },
          "indices": 11,
          "material": 1,
          "mode": 4
        }
      ]
    },
    {
      "name": "Well_Details_0",
      "primitives": [
        {
          "attributes": {
            "NORMAL": 13,
            "POSITION": 12,
            "TANGENT": 14,
            "TEXCOORD_0": 15,
            "TEXCOORD_1": 16
          },
          "indices": 17,
          "material": 2,
          "mode": 4
        }
      ]
    },
    {
      "name": "Well_WellTube_0",
      "primitives": [
        {
          "attributes": {
            "NORMAL": 19,
            "POSITION": 18,
            "TANGENT": 20,
            "TEXCOORD_0": 21
          },
          "indices": 22,
          "material": 3,
          "mode": 4
        }
      ]
    }
  ],
  "nodes": [
    {
      "children": [
        1
      ],
      "matrix": [
        1.0,
        0.0,
        0.0,
        0.0,
        0.0,
        2.220446049250313e-16,
        -1.0,
        0.0,
        0.0,
        1.0,
        2.220446049250313e-16,
        0.0,
        0.0,
        0.0,
        0.0,
        1.0
      ],
      "name": "Sketchfab_model"
    },
    {
      "children": [
        2
      ],
      "matrix": [
        1.0,
        0.0,
        0.0,
        0.0,
        0.0,
        0.0,
        1.0,
        0.0,
        0.0,
        -1.0,
        0.0,
        0.0,
        0.0,
        0.0,
        0.0,
        1.0
      ],
      "name": "f3dd23352ef64a238f300daa6a3631df.fbx"
    },
    {
      "children": [
        3
      ],
      "name": "RootNode"
    },
    {
      "children": [
        4,
        5,
        6,
        7
      ],
      "matrix": [
        1.0,
        0.0,
        0.0,
        0.0,
        0.0,
        -1.6292067939183141e-07,
        -0.9999999999999868,
        0.0,
        0.0,
        0.9999999999999868,
        -1.6292067939183141e-07,
        0.0,
        0.0,
        0.0,
        0.0,
        1.0
      ],
      "name": "Well"
    },
    {
      "mesh": 0,
      "name": "Well_Top_0"
    },
    {
      "mesh": 1,
      "name": "Well_Wire_0"
    },
    {
      "mesh": 2,
      "name": "Well_Details_0"
    },
    {
      "mesh": 3,
      "name": "Well_WellTube_0"
    }
  ],
  "samplers": [
    {
      "magFilter": 9729,
      "minFilter": 9987,
      "wrapS": 10497,
      "wrapT": 10497
    }
  ],
  "scene": 0,
  "scenes": [
    {
      "name": "Sketchfab_Scene",
      "nodes": [
        0
      ]
    }
  ],
  "textures": [
    {
      "sampler": 0,
      "source": 0
    },
    {
      "sampler": 0,
      "source": 1
    },
    {
      "sampler": 0,
      "source": 2
    },
    {
      "sampler": 0,
      "source": 3
    },
    {
      "sampler": 0,
      "source": 4
    },
    {
      "sampler": 0,
      "source": 5
    },
    {
      "sampler": 0,
      "source": 6
    },
    {
      "sampler": 0,
      "source": 7
    },
    {
      "sampler": 0,
      "source": 8
    },
    {
      "sampler": 0,
      "source": 9
    },
    {
      "sampler": 0,
      "source": 10
    }
  ]
}
