{
  "accessors": [
    {
      "bufferView": 2,
      "componentType": 5126,
      "count": 776,
      "max": [
        0.2749267816543579,
        0.22390104830265045,
        0.5039610862731934
      ],
      "min": [
        -0.2749265730381012,
        -0.22395262122154236,
        0.00012889879872091115
      ],
      "type": "VEC3"
    },
    {
      "bufferView": 2,
      "byteOffset": 9312,
      "componentType": 5126,
      "count": 776,
      "max": [
        0.9997031688690186,
        0.9995673298835754,
        0.9999996423721313
      ],
      "min": [
        -0.9997031688690186,
        -0.9995673298835754,
        -1.0
      ],
      "type": "VEC3"
    },
    {
      "bufferView": 3,
      "componentType": 5126,
      "count": 776,
      "max": [
        1.0,
        1.0,
        0.8465672731399536,
        1.0
      ],
      "min": [
        -1.0,
        -1.0,
        -0.5919579267501831,
        -1.0
      ],
      "type": "VEC4"
    },
    {
      "bufferView": 1,
      "componentType": 5126,
      "count": 776,
      "max": [
        0.9973597526550293,
        0.9978480339050293
      ],
      "min": [
        0.0050600734539330006,
        0.007990206591784954
      ],
      "type": "VEC2"
    },
    {
      "bufferView": 0,
      "componentType": 5125,
      "count": 3264,
      "type": "SCALAR"
    }
  ],
  "asset": {
    "extras": {
      "author": "National Heritage Administration (https://sketchfab.com/NHA_Asset)",
      "license": "CC-BY-4.0 (http://creativecommons.org/licenses/by/4.0/)",
      "source": "https://sketchfab.com/3d-models/jar-d00a1cb787314ffb9c5bd9c830e67b94",
      "title": "Jar"
    },
    "generator": "Sketchfab-15.56.0",
    "version": "2.0"
  },
  "bufferViews": [
    {
      "buffer": 0,
      "byteLength": 13056,
      "name": "floatBufferViews",
      "target": 34963
    },
    {
      "buffer": 0,
      "byteLength": 6208,
      "byteOffset": 13056,
      "byteStride": 8,
      "name": "floatBufferViews",
      "target": 34962
    },
    {
      "buffer": 0,
      "byteLength": 18624,
      "byteOffset": 19264,
      "byteStride": 12,
      "name": "floatBufferViews",
      "target": 34962
    },
    {
      "buffer": 0,
      "byteLength": 12416,
      "byteOffset": 37888,
      "byteStride": 16,
      "name": "floatBufferViews",
      "target": 34962
    }
  ],
  "buffers": [
    {
      "byteLength": 50304,
      "uri": "scene.bin"
    }
  ],
  "images": [
    {
      "uri": "textures/M_Jar01c_baseColor.png"
    },
    {
      "uri": "textures/M_Jar01c_metallicRoughness.png"
    },
    {
      "uri": "textures/M_Jar01c_normal.png"
    }
  ],
  "materials": [
    {
      "doubleSided": true,
      "name": "M_Jar01c",
      "normalTexture": {
        "index": 2
      },
      "occlusionTexture": {
        "index": 1
      },
      "pbrMetallicRoughness": {
        "baseColorTexture": {
          "index": 0
        },
        "metallicFactor": 0.0,
        "metallicRoughnessTexture": {
          "index": 1
        }
      }
    }
  ],
  "meshes": [
    {
      "name": "SM_Jar01c_M_Jar01c_0",
      "primitives": [
        {
          "attributes": {
            "NORMAL": 1,
            "POSITION": 0,
            "TANGENT": 2,
            "TEXCOORD_0": 3
          },
          "indices": 4,
          "material": 0,
          "mode": 4
        }
      ]
    }
  ],
  "nodes": [
    {
      "children": [
        1
      ],
      "matrix": [
        1.0,
        0.0,
        0.0,
        0.0,
        0.0,
        2.220446049250313e-16,
        -1.0,
        0.0,
        0.0,
        1.0,
        2.220446049250313e-16,
        0.0,
        0.0,
        0.0,
        0.0,
        1.0
      ],
      "name": "Sketchfab_model"
    },
    {
      "children": [
        2
      ],
      "matrix": [
        0.009999999776482582,
        0.0,
        0.0,
        0.0,
        0.0,
        0.0,
        0.009999999776482582,
        0.0,
        0.0,
        -0.009999999776482582,
        0.0,
        0.0,
        0.0,
        0.0,
        0.0,
        1.0
      ],
      "name": "SM_Jar01c.fbx"
    },
    {
      "children": [
        3
      ],
      "name": "RootNode"
    },
    {
      "children": [
        4
      ],
      "matrix": [
        100.0,
        0.0,
        0.0,
        0.0,
        0.0,
        -1.629206793918314e-05,
        -99.99999999999868,
        0.0,
        0.0,
        99.99999999999868,
        -1.629206793918314e-05,
        0.0,
        0.0,
        0.0,
        0.0,
        1.0
      ],
      "name": "SM_Jar01c"
    },
    {
      "mesh": 0,
      "name": "SM_Jar01c_M_Jar01c_0"
    }
  ],
  "samplers": [
    {
      "magFilter": 9729,
      "minFilter": 9987,
      "wrapS": 10497,
      "wrapT": 10497
    }
  ],
  "scene": 0,
  "scenes": [
    {
      "name": "Sketchfab_Scene",
      "nodes": [
        0
      ]
    }
  ],
  "textures": [
    {
      "sampler": 0,
      "source": 0
    },
    {
      "sampler": 0,
      "source": 1
    },
    {
      "sampler": 0,
      "source": 2
    }
  ]
}
