{
  "accessors": [
    {
      "bufferView": 2,
      "componentType": 5126,
      "count": 1493,
      "max": [
        1.9835337400436401,
        0.5744556188583374,
        0.6335846185684204
      ],
      "min": [
        -1.3969838619232178e-09,
        -0.6824225187301636,
        -0.4345954954624176
      ],
      "type": "VEC3"
    },
    {
      "bufferView": 2,
      "byteOffset": 17916,
      "componentType": 5126,
      "count": 1493,
      "max": [
        0.9687230587005615,
        0.9999765157699585,
        0.9994806051254272
      ],
      "min": [
        -0.6620245575904846,
        -0.9997266530990601,
        -0.9994845390319824
      ],
      "type": "VEC3"
    },
    {
      "bufferView": 3,
      "componentType": 5126,
      "count": 1493,
      "max": [
        1.0,
        1.0,
        1.0,
        1.0
      ],
      "min": [
        1.0,
        1.0,
        1.0,
        1.0
      ],
      "type": "VEC4"
    },
    {
      "bufferView": 1,
      "componentType": 5126,
      "count": 1493,
      "max": [
        1.0,
        144.37322998046875
      ],
      "min": [
        0.0,
        0.0
      ],
      "type": "VEC2"
    },
    {
      "bufferView": 0,
      "componentType": 5125,
      "count": 6048,
      "type": "SCALAR"
    },
    {
      "bufferView": 2,
      "byteOffset": 35832,
      "componentType": 5126,
      "count": 732,
      "max": [
        2.6702754497528076,
        1.1218369007110596,
        1.0513291358947754
      ],
      "min": [
        0.9943390488624573,
        -1.278942346572876,
        -0.9310805201530457
      ],
      "type": "VEC3"
    },
    {
      "bufferView": 2,
      "byteOffset": 44616,
      "componentType": 5126,
      "count": 732,
      "max": [
        0.9954768419265747,
        0.5669951438903809,
        0.9998904466629028
      ],
      "min": [
        -0.8124247193336487,
        -0.8055211901664734,
        -0.054141148924827576
      ],
      "type": "VEC3"
    },
    {
      "bufferView": 3,
      "byteOffset": 23888,
      "componentType": 5126,
      "count": 732,
      "max": [
        0.8078431487083435,
        0.8078431487083435,
        0.8078431487083435,
        0.8078431487083435
      ],
      "min": [
        0.019607843831181526,
        0.019607843831181526,
        0.019607843831181526,
        0.019607843831181526
      ],
      "type": "VEC4"
    },
    {
      "bufferView": 1,
      "byteOffset": 11944,
      "componentType": 5126,
      "count": 732,
      "max": [
        0.9700315594673157,
        0.9304547309875488
      ],
      "min": [
        0.11758403480052948,
        0.06395462900400162
      ],
      "type": "VEC2"
    },
    {
      "bufferView": 0,
      "byteOffset": 24192,
      "componentType": 5125,
      "count": 2160,
      "type": "SCALAR"
    },
    {
      "bufferView": 2,
      "byteOffset": 53400,
      "componentType": 5126,
      "count": 13752,
      "max": [
        9.01029109954834,
        8.566605567932129,
        31.56072998046875
      ],
      "min": [
        -9.17225456237793,
        -8.133953094482422,
        0.0
      ],
      "type": "VEC3"
    },
    {
      "bufferView": 2,
      "byteOffset": 218424,
      "componentType": 5126,
      "count": 13752,
      "max": [
        0.9999997615814209,
        0.9999997615814209,
        0.9999994039535522
      ],
      "min": [
        -0.9999997615814209,
        -0.9999997615814209,
        -0.9999985694885254
      ],
      "type": "VEC3"
    },
    {
      "bufferView": 0,
      "byteOffset": 32832,
      "componentType": 5125,
      "count": 68100,
      "type": "SCALAR"
    }
  ],
  "asset": {
    "extras": {
      "author": "Helindu (https://sketchfab.com/Helindu)",
      "license": "CC-BY-4.0 (http://creativecommons.org/licenses/by/4.0/)",
      "source": "https://sketchfab.com/3d-models/tree-without-leaves-low-poly-71289b9e874949b6ada6acc3c819d152",
      "title": "tree without leaves ,Low Poly"
    },
    "generator": "Sketchfab-12.65.0",
    "version": "2.0"
  },
  "bufferViews": [
    {
      "buffer": 0,
      "byteLength": 305232,
      "name": "floatBufferViews",
      "target": 34963
    },
    {
      "buffer": 0,
      "byteLength": 17800,
      "byteOffset": 305232,
      "byteStride": 8,
      "name": "floatBufferViews",
      "target": 34962
    },
    {
      "buffer": 0,
      "byteLength": 383448,
      "byteOffset": 323032,
      "byteStride": 12,
      "name": "floatBufferViews",
      "target": 34962
    },
    {
      "buffer": 0,
      "byteLength": 35600,
      "byteOffset": 706480,
      "byteStride": 16,
      "name": "floatBufferViews",
      "target": 34962
    }
  ],
  "buffers": [
    {
      "byteLength": 742080,
      "uri": "scene.bin"
    }
  ],
  "materials": [
    {
      "doubleSided": true,
      "name": "Tree__0",
      "pbrMetallicRoughness": {
        "baseColorFactor": [
          0.3806290697569302,
          0.14771266237656894,
          0.036338938729495035,
          1.0
        ],
        "metallicFactor": 0.4407393292682927,
        "roughnessFactor": 0.6
      }
    },
    {
      "alphaMode": "BLEND",
      "doubleSided": true,
      "name": "twig",
      "pbrMetallicRoughness": {
        "baseColorFactor": [
          0.8,
          0.572823,
          0.285029,
          0.0
        ],
        "metallicFactor": 0.0,
        "roughnessFactor": 0.8657594247042393
      }
    },
    {
      "alphaMode": "BLEND",
      "doubleSided": true,
      "name": "plamatisate",
      "pbrMetallicRoughness": {
        "baseColorFactor": [
          0.4,
          0.8,
          0.4,
          0.0
        ],
        "metallicFactor": 0.0,
        "roughnessFactor": 0.8465878481996945
      }
    }
  ],
  "meshes": [
    {
      "name": "tree_twig_0",
      "primitives": [
        {
          "attributes": {
            "COLOR_0": 2,
            "NORMAL": 1,
            "POSITION": 0,
            "TEXCOORD_0": 3
          },
          "indices": 4,
          "material": 1,
          "mode": 4
        }
      ]
    },
    {
      "name": "tree_plamatisate_0",
      "primitives": [
        {
          "attributes": {
            "COLOR_0": 7,
            "NORMAL": 6,
            "POSITION": 5,
            "TEXCOORD_0": 8
          },
          "indices": 9,
          "material": 2,
          "mode": 4
        }
      ]
    },
    {
      "name": "Tree__0",
      "primitives": [
        {
          "attributes": {
            "NORMAL": 11,
            "POSITION": 10
          },
          "indices": 12,
          "material": 0,
          "mode": 4
        }
      ]
    }
  ],
  "nodes": [
    {
      "children": [
        1
      ],
      "matrix": [
        1.0,
        0.0,
        0.0,
        0.0,
        0.0,
        2.220446049250313e-16,
        -1.0,
        0.0,
        0.0,
        1.0,
        2.220446049250313e-16,
        0.0,
        0.0,
        0.0,
        0.0,
        1.0
      ],
      "name": "Sketchfab_model"
    },
    {
      "children": [
        2
      ],
      "matrix": [
        1.0,
        0.0,
        0.0,
        0.0,
        0.0,
        0.0,
        1.0,
        0.0,
        0.0,
        -1.0,
        0.0,
        0.0,
        0.0,
        0.0,
        0.0,
        1.0
      ],
      "name": "8bce807a5fb14bee92f75140ebc5248d.fbx"
    },
    {
      "children": [
        3,
        6
      ],
      "name": "RootNode"
    },
    {
      "children": [
        4,
        5
      ],
      "matrix": [
        100.0,
        0.0,
        0.0,
        0.0,
        0.0,
        -1.629206793918314e-05,
        -99.99999999999868,
        0.0,
        0.0,
        99.99999999999868,
        -1.629206793918314e-05,
        0.0,
        1792.65234375,
        0.0,
        -484.968505859375,
        1.0
      ],
      "name": "tree"
    },
    {
      "mesh": 0,
      "name": "tree_twig_0"
    },
    {
      "mesh": 1,
      "name": "tree_plamatisate_0"
    },
    {
      "children": [
        7
      ],
      "matrix": [
        100.0,
        0.0,
        0.0,
        0.0,
        0.0,
        -1.629206793918314e-05,
        -99.99999999999868,
        0.0,
        0.0,
        99.99999999999868,
        -1.629206793918314e-05,
        0.0,
        0.0,
        0.0,
        33.6639404296875,
        1.0
      ],
      "name": "Tree"
    },
    {
      "mesh": 2,
      "name": "Tree__0"
    }
  ],
  "scene": 0,
  "scenes": [
    {
      "name": "Sketchfab_Scene",
      "nodes": [
        0
      ]
    }
  ]
}
