{
  "accessors": [
    {
      "bufferView": 2,
      "componentType": 5126,
      "count": 174,
      "max": [
        1.2847930192947388,
        3.4406208992004395,
        0.933892011642456
      ],
      "min": [
        -1.0970929861068726,
        2.2535009384155273,
        -0.17961899936199188
      ],
      "type": "VEC3"
    },
    {
      "bufferView": 2,
      "byteOffset": 2088,
      "componentType": 5126,
      "count": 174,
      "max": [
        1.0,
        0.0,
        1.0
      ],
      "min": [
        -1.0,
        0.0,
        -1.0
      ],
      "type": "VEC3"
    },
    {
      "bufferView": 3,
      "componentType": 5126,
      "count": 174,
      "max": [
        0.9973294138908386,
        0.9993030428886414,
        0.0,
        1.0
      ],
      "min": [
        -0.9983634948730469,
        -0.9976511001586914,
        -0.9999960064888,
        -1.0
      ],
      "type": "VEC4"
    },
    {
      "bufferView": 1,
      "componentType": 5126,
      "count": 174,
      "max": [
        0.8663700222969055,
        0.25585100054740906
      ],
      "min": [
        0.11922299861907959,
        0.0
      ],
      "type": "VEC2"
    },
    {
      "bufferView": 0,
      "componentType": 5125,
      "count": 480,
      "type": "SCALAR"
    },
    {
      "bufferView": 2,
      "byteOffset": 4176,
      "componentType": 5126,
      "count": 9919,
      "max": [
        1.6083619594573975,
        3.6855099201202393,
        2.3464291095733643
      ],
      "min": [
        -1.6106469631195068,
        -3.0821499824523926,
        -0.7204089760780334
      ],
      "type": "VEC3"
    },
    {
      "bufferView": 2,
      "byteOffset": 123204,
      "componentType": 5126,
      "count": 9919,
      "max": [
        1.0,
        1.0,
        1.0
      ],
      "min": [
        -1.0,
        -1.0,
        -1.0
      ],
      "type": "VEC3"
    },
    {
      "bufferView": 3,
      "byteOffset": 2784,
      "componentType": 5126,
      "count": 9919,
      "max": [
        0.9999983906745911,
        1.0,
        1.0,
        1.0
      ],
      "min": [
        -0.9999998211860657,
        -1.0,
        -1.0,
        -1.0
      ],
      "type": "VEC4"
    },
    {
      "bufferView": 1,
      "byteOffset": 1392,
      "componentType": 5126,
      "count": 9919,
      "max": [
        0.9924489855766296,
        0.9775000214576721
      ],
      "min": [
        0.0,
        -0.0
      ],
      "type": "VEC2"
    },
    {
      "bufferView": 0,
      "byteOffset": 1920,
      "componentType": 5125,
      "count": 25086,
      "type": "SCALAR"
    },
    {
      "bufferView": 2,
      "byteOffset": 242232,
      "componentType": 5126,
      "count": 9977,
      "max": [
        1.614943027496338,
        3.6855099201202393,
        1.950523018836975
      ],
      "min": [
        -1.607643961906433,
        -3.0672409534454346,
        -1.107316017150879
      ],
      "type": "VEC3"
    },
    {
      "bufferView": 2,
      "byteOffset": 361956,
      "componentType": 5126,
      "count": 9977,
      "max": [
        1.0,
        1.0,
        1.0
      ],
      "min": [
        -1.0,
        -1.0,
        -1.0
      ],
      "type": "VEC3"
    },
    {
      "bufferView": 3,
      "byteOffset": 161488,
      "componentType": 5126,
      "count": 9977,
      "max": [
        1.0,
        1.0,
        1.0,
        1.0
      ],
      "min": [
        -0.9999998211860657,
        -1.0,
        -1.0,
        -1.0
      ],
      "type": "VEC4"
    },
    {
      "bufferView": 1,
      "byteOffset": 80744,
      "componentType": 5126,
      "count": 9977,
      "max": [
        0.992950975894928,
        0.9900109767913818
      ],
      "min": [
        0.0,
        -0.0
      ],
      "type": "VEC2"
    },
    {
      "bufferView": 0,
      "byteOffset": 102264,
      "componentType": 5125,
      "count": 20487,
      "type": "SCALAR"
    },
    {
      "bufferView": 2,
      "byteOffset": 481680,
      "componentType": 5126,
      "count": 9989,
      "max": [
        -0.94656902551651,
        3.541546106338501,
        0.5371040105819702
      ],
      "min": [
        -1.6081819534301758,
        -2.9340949058532715,
        -1.107316017150879
      ],
      "type": "VEC3"
    },
    {
      "bufferView": 2,
      "byteOffset": 601548,
      "componentType": 5126,
      "count": 9989,
      "max": [
        0.9999996423721313,
        0.9999804496765137,
        1.0
      ],
      "min": [
        -1.0,
        -0.9999803304672241,
        -1.0
      ],
      "type": "VEC3"
    },
    {
      "bufferView": 3,
      "byteOffset": 321120,
      "componentType": 5126,
      "count": 9989,
      "max": [
        0.999941349029541,
        0.9999834299087524,
        0.9999973773956299,
        1.0
      ],
      "min": [
        -0.999998152256012,
        -0.9999890923500061,
        -0.9999880194664001,
        -1.0
      ],
      "type": "VEC4"
    },
    {
      "bufferView": 1,
      "byteOffset": 160560,
      "componentType": 5126,
      "count": 9989,
      "max": [
        0.9966769814491272,
        0.9799169898033142
      ],
      "min": [
        0.0,
        0.0
      ],
      "type": "VEC2"
    },
    {
      "bufferView": 0,
      "byteOffset": 184212,
      "componentType": 5125,
      "count": 21696,
      "type": "SCALAR"
    },
    {
      "bufferView": 2,
      "byteOffset": 721416,
      "componentType": 5126,
      "count": 9980,
      "max": [
        -0.9792590141296387,
        3.513309955596924,
        0.5906350016593933
      ],
      "min": [
        -1.603868007659912,
        -3.0881741046905518,
        -1.1132769584655762
      ],
      "type": "VEC3"
    },
    {
      "bufferView": 2,
      "byteOffset": 841176,
      "componentType": 5126,
      "count": 9980,
      "max": [
        0.9999996423721313,
        0.9999803304672241,
        1.0
      ],
      "min": [
        -1.0,
        -0.9999803304672241,
        -1.0
      ],
      "type": "VEC3"
    },
    {
      "bufferView": 3,
      "byteOffset": 480944,
      "componentType": 5126,
      "count": 9980,
      "max": [
        0.9999417662620544,
        0.9999834299087524,
        1.0,
        -1.0
      ],
      "min": [
        -0.9999982118606567,
        -0.9999803304672241,
        -1.0,
        -1.0
      ],
      "type": "VEC4"
    },
    {
      "bufferView": 1,
      "byteOffset": 240472,
      "componentType": 5126,
      "count": 9980,
      "max": [
        0.9954760074615479,
        0.9901180267333984
      ],
      "min": [
        0.0,
        0.0
      ],
      "type": "VEC2"
    },
    {
      "bufferView": 0,
      "byteOffset": 270996,
      "componentType": 5125,
      "count": 21246,
      "type": "SCALAR"
    },
    {
      "bufferView": 2,
      "byteOffset": 960936,
      "componentType": 5126,
      "count": 9555,
      "max": [
        0.6475099921226501,
        3.600044012069702,
        1.1904499530792236
      ],
      "min": [
        -1.5789810419082642,
        -3.0881400108337402,
        -1.107316017150879
      ],
      "type": "VEC3"
    },
    {
      "bufferView": 2,
      "byteOffset": 1075596,
      "componentType": 5126,
      "count": 9555,
      "max": [
        1.0,
        0.9999850988388062,
        0.9999961256980896
      ],
      "min": [
        -1.0,
        -0.9999971389770508,
        -0.9999967813491821
      ],
      "type": "VEC3"
    },
    {
      "bufferView": 3,
      "byteOffset": 640624,
      "componentType": 5126,
      "count": 9555,
      "max": [
        1.0,
        0.9999834299087524,
        0.9999973773956299,
        1.0
      ],
      "min": [
        -1.0,
        -0.9999890923500061,
        -0.9999994039535522,
        -1.0
      ],
      "type": "VEC4"
    },
    {
      "bufferView": 1,
      "byteOffset": 320312,
      "componentType": 5126,
      "count": 9555,
      "max": [
        0.9891939759254456,
        0.5117480158805847
      ],
      "min": [
        0.03725700080394745,
        0.0
      ],
      "type": "VEC2"
    },
    {
      "bufferView": 0,
      "byteOffset": 355980,
      "componentType": 5125,
      "count": 19398,
      "type": "SCALAR"
    },
    {
      "bufferView": 2,
      "byteOffset": 1190256,
      "componentType": 5126,
      "count": 9908,
      "max": [
        1.5574549436569214,
        3.5973269939422607,
        0.6446890234947205
      ],
      "min": [
        -1.57771897315979,
        -2.9207019805908203,
        -1.107316017150879
      ],
      "type": "VEC3"
    },
    {
      "bufferView": 2,
      "byteOffset": 1309152,
      "componentType": 5126,
      "count": 9908,
      "max": [
        1.0,
        0.9999961256980896,
        0.9999985098838806
      ],
      "min": [
        -1.0,
        -0.9999961256980896,
        -0.9999984502792358
      ],
      "type": "VEC3"
    },
    {
      "bufferView": 3,
      "byteOffset": 793504,
      "componentType": 5126,
      "count": 9908,
      "max": [
        0.9999999403953552,
        0.9999834299087524,
        0.9999973773956299,
        1.0
      ],
      "min": [
        -0.9999998807907104,
        -0.9999961256980896,
        -0.9999881386756897,
        -1.0
      ],
      "type": "VEC4"
    },
    {
      "bufferView": 1,
      "byteOffset": 396752,
      "componentType": 5126,
      "count": 9908,
      "max": [
        0.9891939759254456,
        0.5117480158805847
      ],
      "min": [
        0.07823999971151352,
        0.0
      ],
      "type": "VEC2"
    },
    {
      "bufferView": 0,
      "byteOffset": 433572,
      "componentType": 5125,
      "count": 18984,
      "type": "SCALAR"
    },
    {
      "bufferView": 2,
      "byteOffset": 1428048,
      "componentType": 5126,
      "count": 9258,
      "max": [
        1.5574549436569214,
        2.5326569080352783,
        2.349086046218872
      ],
      "min": [
        -1.3470079898834229,
        -2.6746809482574463,
        -1.1132769584655762
      ],
      "type": "VEC3"
    },
    {
      "bufferView": 2,
      "byteOffset": 1539144,
      "componentType": 5126,
      "count": 9258,
      "max": [
        1.0,
        1.0,
        1.0
      ],
      "min": [
        -1.0,
        -1.0,
        -1.0
      ],
      "type": "VEC3"
    },
    {
      "bufferView": 3,
      "byteOffset": 952032,
      "componentType": 5126,
      "count": 9258,
      "max": [
        0.9999999403953552,
        0.9999756813049316,
        0.9999973773956299,
        1.0
      ],
      "min": [
        -1.0,
        -0.9999961256980896,
        -0.9999879598617554,
        -1.0
      ],
      "type": "VEC4"
    },
    {
      "bufferView": 1,
      "byteOffset": 476016,
      "componentType": 5126,
      "count": 9258,
      "max": [
        0.9891939759254456,
        0.9466410279273987
      ],
      "min": [
        0.07823999971151352,
        0.0
      ],
      "type": "VEC2"
    },
    {
      "bufferView": 0,
      "byteOffset": 509508,
      "componentType": 5125,
      "count": 19536,
      "type": "SCALAR"
    },
    {
      "bufferView": 2,
      "byteOffset": 1650240,
      "componentType": 5126,
      "count": 9897,
      "max": [
        1.6115800142288208,
        3.637423038482666,
        2.349086046218872
      ],
      "min": [
        -1.607643961906433,
        -2.957051992416382,
        -1.0486090183258057
      ],
      "type": "VEC3"
    },
    {
      "bufferView": 2,
      "byteOffset": 1769004,
      "componentType": 5126,
      "count": 9897,
      "max": [
        1.0,
        1.0,
        1.0
      ],
      "min": [
        -1.0,
        -1.0,
        -1.0
      ],
      "type": "VEC3"
    },
    {
      "bufferView": 3,
      "byteOffset": 1100160,
      "componentType": 5126,
      "count": 9897,
      "max": [
        1.0,
        1.0,
        1.0,
        1.0
      ],
      "min": [
        -1.0,
        -1.0,
        -0.9999979138374329,
        -1.0
      ],
      "type": "VEC4"
    },
    {
      "bufferView": 1,
      "byteOffset": 550080,
      "componentType": 5126,
      "count": 9897,
      "max": [
        1.0,
        1.0
      ],
      "min": [
        0.0,
        0.0
      ],
      "type": "VEC2"
    },
    {
      "bufferView": 0,
      "byteOffset": 587652,
      "componentType": 5125,
      "count": 25002,
      "type": "SCALAR"
    },
    {
      "bufferView": 2,
      "byteOffset": 1887768,
      "componentType": 5126,
      "count": 9965,
      "max": [
        1.614943027496338,
        3.8241539001464844,
        2.3464291095733643
      ],
      "min": [
        -1.607643961906433,
        -3.088599920272827,
        -1.0486090183258057
      ],
      "type": "VEC3"
    },
    {
      "bufferView": 2,
      "byteOffset": 2007348,
      "componentType": 5126,
      "count": 9965,
      "max": [
        1.0,
        1.0,
        1.0
      ],
      "min": [
        -1.0,
        -1.0,
        -1.0
      ],
      "type": "VEC3"
    },
    {
      "bufferView": 3,
      "byteOffset": 1258512,
      "componentType": 5126,
      "count": 9965,
      "max": [
        0.9999999403953552,
        1.0,
        1.0,
        1.0
      ],
      "min": [
        -1.0,
        -1.0,
        -1.0,
        -1.0
      ],
      "type": "VEC4"
    },
    {
      "bufferView": 1,
      "byteOffset": 629256,
      "componentType": 5126,
      "count": 9965,
      "max": [
        0.9966599941253662,
        0.9907090067863464
      ],
      "min": [
        0.0,
        0.0
      ],
      "type": "VEC2"
    },
    {
      "bufferView": 0,
      "byteOffset": 687660,
      "componentType": 5125,
      "count": 24954,
      "type": "SCALAR"
    },
    {
      "bufferView": 2,
      "byteOffset": 2126928,
      "componentType": 5126,
      "count": 9865,
      "max": [
        1.600134015083313,
        3.4291300773620605,
        1.3560179471969604
      ],
      "min": [
        -1.581346035003662,
        -3.086590051651001,
        -0.6868879795074463
      ],
      "type": "VEC3"
    },
    {
      "bufferView": 2,
      "byteOffset": 2245308,
      "componentType": 5126,
      "count": 9865,
      "max": [
        1.0,
        1.0,
        1.0
      ],
      "min": [
        -1.0,
        -1.0,
        -1.0
      ],
      "type": "VEC3"
    },
    {
      "bufferView": 3,
      "byteOffset": 1417952,
      "componentType": 5126,
      "count": 9865,
      "max": [
        0.9999999403953552,
        0.9999954104423523,
        0.9998824596405029,
        1.0
      ],
      "min": [
        -0.9999802112579346,
        -1.0,
        -0.9999879598617554,
        -1.0
      ],
      "type": "VEC4"
    },
    {
      "bufferView": 1,
      "byteOffset": 708976,
      "componentType": 5126,
      "count": 9865,
      "max": [
        0.9954760074615479,
        0.9694409966468811
      ],
      "min": [
        0.0,
        0.0
      ],
      "type": "VEC2"
    },
    {
      "bufferView": 0,
      "byteOffset": 787476,
      "componentType": 5125,
      "count": 21108,
      "type": "SCALAR"
    },
    {
      "bufferView": 2,
      "byteOffset": 2363688,
      "componentType": 5126,
      "count": 9875,
      "max": [
        1.5911539793014526,
        3.6132609844207764,
        1.928871989250183
      ],
      "min": [
        -1.5879679918289185,
        -3.056673049926758,
        -1.0018579959869385
      ],
      "type": "VEC3"
    },
    {
      "bufferView": 2,
      "byteOffset": 2482188,
      "componentType": 5126,
      "count": 9875,
      "max": [
        1.0,
        1.0,
        1.0
      ],
      "min": [
        -1.0,
        -1.0,
        -1.0
      ],
      "type": "VEC3"
    },
    {
      "bufferView": 3,
      "byteOffset": 1575792,
      "componentType": 5126,
      "count": 9875,
      "max": [
        0.9999999403953552,
        1.0,
        0.9999971985816956,
        1.0
      ],
      "min": [
        -0.999976634979248,
        -0.9999999403953552,
        -0.9999993443489075,
        -1.0
      ],
      "type": "VEC4"
    },
    {
      "bufferView": 1,
      "byteOffset": 787896,
      "componentType": 5126,
      "count": 9875,
      "max": [
        0.9891939759254456,
        0.9900109767913818
      ],
      "min": [
        0.0,
        -0.0
      ],
      "type": "VEC2"
    },
    {
      "bufferView": 0,
      "byteOffset": 871908,
      "componentType": 5125,
      "count": 19368,
      "type": "SCALAR"
    },
    {
      "bufferView": 2,
      "byteOffset": 2600688,
      "componentType": 5126,
      "count": 5672,
      "max": [
        1.600134015083313,
        3.6408629417419434,
        2.2264909744262695
      ],
      "min": [
        -1.607643961906433,
        -1.6694109439849854,
        -0.6868879795074463
      ],
      "type": "VEC3"
    },
    {
      "bufferView": 2,
      "byteOffset": 2668752,
      "componentType": 5126,
      "count": 5672,
      "max": [
        1.0,
        1.0,
        1.0
      ],
      "min": [
        -1.0,
        -1.0,
        -1.0
      ],
      "type": "VEC3"
    },
    {
      "bufferView": 3,
      "byteOffset": 1733792,
      "componentType": 5126,
      "count": 5672,
      "max": [
        0.9999999403953552,
        0.9998511075973511,
        0.9999904036521912,
        1.0
      ],
      "min": [
        -0.999689519405365,
        -0.9999982118606567,
        -0.9999899864196777,
        -1.0
      ],
      "type": "VEC4"
    },
    {
      "bufferView": 1,
      "byteOffset": 866896,
      "componentType": 5126,
      "count": 5672,
      "max": [
        0.9891939759254456,
        0.8780140280723572
      ],
      "min": [
        -0.0,
        0.0
      ],
      "type": "VEC2"
    },
    {
      "bufferView": 0,
      "byteOffset": 949380,
      "componentType": 5125,
      "count": 11037,
      "type": "SCALAR"
    }
  ],
  "asset": {
    "extras": {
      "author": "Jesper Landin (https://sketchfab.com/JesperLandin)",
      "license": "CC-BY-4.0 (http://creativecommons.org/licenses/by/4.0/)",
      "source": "https://sketchfab.com/3d-models/type-95-ha-go-9ebd80d2ea12441dae8e41ad695d939d",
      "title": "Type 95 Ha-Go"
    },
    "generator": "Sketchfab-12.68.0",
    "version": "2.0"
  },
  "bufferViews": [
    {
      "buffer": 0,
      "byteLength": 993528,
      "name": "floatBufferViews",
      "target": 34963
    },
    {
      "buffer": 0,
      "byteLength": 912272,
      "byteOffset": 993528,
      "byteStride": 8,
      "name": "floatBufferViews",
      "target": 34962
    },
    {
      "buffer": 0,
      "byteLength": 2736816,
      "byteOffset": 1905800,
      "byteStride": 12,
      "name": "floatBufferViews",
      "target": 34962
    },
    {
      "buffer": 0,
      "byteLength": 1824544,
      "byteOffset": 4642616,
      "byteStride": 16,
      "name": "floatBufferViews",
      "target": 34962
    }
  ],
  "buffers": [
    {
      "byteLength": 6467160,
      "uri": "scene.bin"
    }
  ],
  "images": [
    {
      "uri": "textures/initialShadingGroup_baseColor.png"
    },
    {
      "uri": "textures/initialShadingGroup_metallicRoughness.png"
    },
    {
      "uri": "textures/initialShadingGroup_normal.png"
    }
  ],
  "materials": [
    {
      "alphaMode": "BLEND",
      "name": "initialShadingGroup",
      "normalTexture": {
        "index": 2
      },
      "pbrMetallicRoughness": {
        "baseColorTexture": {
          "index": 0
        },
        "metallicRoughnessTexture": {
          "index": 1
        }
      }
    }
  ],
  "meshes": [
    {
      "name": "Object_0",
      "primitives": [
        {
          "attributes": {
            "NORMAL": 1,
            "POSITION": 0,
            "TANGENT": 2,
            "TEXCOORD_0": 3
          },
          "indices": 4,
          "material": 0,
          "mode": 4
        }
      ]
    },
    {
      "name": "Object_1",
      "primitives": [
        {
          "attributes": {
            "NORMAL": 6,
            "POSITION": 5,
            "TANGENT": 7,
            "TEXCOORD_0": 8
          },
          "indices": 9,
          "material": 0,
          "mode": 4
        }
      ]
    },
    {
      "name": "Object_2",
      "primitives": [
        {
          "attributes": {
            "NORMAL": 11,
            "POSITION": 10,
            "TANGENT": 12,
            "TEXCOORD_0": 13
          },
          "indices": 14,
          "material": 0,
          "mode": 4
        }
      ]
    },
    {
      "name": "Object_3",
      "primitives": [
        {
          "attributes": {
            "NORMAL": 16,
            "POSITION": 15,
            "TANGENT": 17,
            "TEXCOORD_0": 18
          },
          "indices": 19,
          "material": 0,
          "mode": 4
        }
      ]
    },
    {
      "name": "Object_4",
      "primitives": [
        {
          "attributes": {
            "NORMAL": 21,
            "POSITION": 20,
            "TANGENT": 22,
            "TEXCOORD_0": 23
          },
          "indices": 24,
          "material": 0,
          "mode": 4
        }
      ]
    },
    {
      "name": "Object_5",
      "primitives": [
        {
          "attributes": {
            "NORMAL": 26,
            "POSITION": 25,
            "TANGENT": 27,
            "TEXCOORD_0": 28
          },
          "indices": 29,
          "material": 0,
          "mode": 4
        }
      ]
    },
    {
      "name": "Object_6",
      "primitives": [
        {
          "attributes": {
            "NORMAL": 31,
            "POSITION": 30,
            "TANGENT": 32,
            "TEXCOORD_0": 33
          },
          "indices": 34,
          "material": 0,
          "mode": 4
        }
      ]
    },
    {
      "name": "Object_7",
      "primitives": [
        {
          "attributes": {
            "NORMAL": 36,
            "POSITION": 35,
            "TANGENT": 37,
            "TEXCOORD_0": 38
          },
          "indices": 39,
          "material": 0,
          "mode": 4
        }
      ]
    },
    {
      "name": "Object_8",
      "primitives": [
        {
          "attributes": {
            "NORMAL": 41,
            "POSITION": 40,
            "TANGENT": 42,
            "TEXCOORD_0": 43
          },
          "indices": 44,
          "material": 0,
          "mode": 4
        }
      ]
    },
    {
      "name": "Object_9",
      "primitives": [
        {
          "attributes": {
            "NORMAL": 46,
            "POSITION": 45,
            "TANGENT": 47,
            "TEXCOORD_0": 48
          },
          "indices": 49,
          "material": 0,
          "mode": 4
        }
      ]
    },
    {
      "name": "Object_10",
      "primitives": [
        {
          "attributes": {
            "NORMAL": 51,
            "POSITION": 50,
            "TANGENT": 52,
            "TEXCOORD_0": 53
          },
          "indices": 54,
          "material": 0,
          "mode": 4
        }
      ]
    },
    {
      "name": "Object_11",
      "primitives": [
        {
          "attributes": {
            "NORMAL": 56,
            "POSITION": 55,
            "TANGENT": 57,
            "TEXCOORD_0": 58
          },
          "indices": 59,
          "material": 0,
          "mode": 4
        }
      ]
    },
    {
      "name": "Object_12",
      "primitives": [
        {
          "attributes": {
            "NORMAL": 61,
            "POSITION": 60,
            "TANGENT": 62,
            "TEXCOORD_0": 63
          },
          "indices": 64,
          "material": 0,
          "mode": 4
        }
      ]
    }
  ],
  "nodes": [
    {
      "children": [
        1
      ],
      "matrix": [
        1.0,
        0.0,
        0.0,
        0.0,
        0.0,
        2.220446049250313e-16,
        -1.0,
        0.0,
        0.0,
        1.0,
        2.220446049250313e-16,
        0.0,
        0.0,
        0.0,
        0.0,
        1.0
      ],
      "name": "Sketchfab_model"
    },
    {
      "children": [
        2,
        3,
        4,
        5,
        6,
        7,
        8,
        9,
        10,
        11,
        12,
        13,
        14
      ],
      "name": "type_95_ha-go_final.obj.cleaner.materialmerger.gles"
    },
    {
      "mesh": 0,
      "name": "Object_2"
    },
    {
      "mesh": 1,
      "name": "Object_3"
    },
    {
      "mesh": 2,
      "name": "Object_4"
    },
    {
      "mesh": 3,
      "name": "Object_5"
    },
    {
      "mesh": 4,
      "name": "Object_6"
    },
    {
      "mesh": 5,
      "name": "Object_7"
    },
    {
      "mesh": 6,
      "name": "Object_8"
    },
    {
      "mesh": 7,
      "name": "Object_9"
    },
    {
      "mesh": 8,
      "name": "Object_10"
    },
    {
      "mesh": 9,
      "name": "Object_11"
    },
    {
      "mesh": 10,
      "name": "Object_12"
    },
    {
      "mesh": 11,
      "name": "Object_13"
    },
    {
      "mesh": 12,
      "name": "Object_14"
    }
  ],
  "samplers": [
    {
      "magFilter": 9729,
      "minFilter": 9987,
      "wrapS": 10497,
      "wrapT": 10497
    }
  ],
  "scene": 0,
  "scenes": [
    {
      "name": "Sketchfab_Scene",
      "nodes": [
        0
      ]
    }
  ],
  "textures": [
    {
      "sampler": 0,
      "source": 0
    },
    {
      "sampler": 0,
      "source": 1
    },
    {
      "sampler": 0,
      "source": 2
    }
  ]
}
