{
  "accessors": [
    {
      "bufferView": 2,
      "componentType": 5126,
      "count": 2171,
      "max": [
        552.5515747070313,
        641.2715454101563,
        367.7485656738281
      ],
      "min": [
        -443.1706848144531,
        -10.655216217041016,
        -462.25201416015625
      ],
      "type": "VEC3"
    },
    {
      "bufferView": 2,
      "byteOffset": 26052,
      "componentType": 5126,
      "count": 2171,
      "max": [
        1.0,
        1.0,
        1.0
      ],
      "min": [
        -1.0,
        -1.0,
        -1.0
      ],
      "type": "VEC3"
    },
    {
      "bufferView": 3,
      "componentType": 5126,
      "count": 2171,
      "max": [
        1.0,
        1.0,
        1.0,
        1.0
      ],
      "min": [
        -0.9999987483024597,
        -1.0,
        -1.0,
        -1.0
      ],
      "type": "VEC4"
    },
    {
      "bufferView": 1,
      "componentType": 5126,
      "count": 2171,
      "max": [
        1.0080695152282715,
        0.9960969686508179
      ],
      "min": [
        0.0,
        0.0
      ],
      "type": "VEC2"
    },
    {
      "bufferView": 0,
      "componentType": 5125,
      "count": 4383,
      "type": "SCALAR"
    },
    {
      "bufferView": 2,
      "byteOffset": 52104,
      "componentType": 5126,
      "count": 9345,
      "max": [
        467.7057189941406,
        789.9044799804688,
        637.1235961914063
      ],
      "min": [
        -716.8539428710938,
        -19.534610748291016,
        -544.7435913085938
      ],
      "type": "VEC3"
    },
    {
      "bufferView": 2,
      "byteOffset": 164244,
      "componentType": 5126,
      "count": 9345,
      "max": [
        1.0,
        1.0,
        1.0
      ],
      "min": [
        -1.0,
        -1.0,
        -1.0
      ],
      "type": "VEC3"
    },
    {
      "bufferView": 3,
      "byteOffset": 34736,
      "componentType": 5126,
      "count": 9345,
      "max": [
        1.0,
        1.0,
        1.0,
        1.0
      ],
      "min": [
        -0.9999975562095642,
        -1.0,
        -1.0,
        -1.0
      ],
      "type": "VEC4"
    },
    {
      "bufferView": 1,
      "byteOffset": 17368,
      "componentType": 5126,
      "count": 9345,
      "max": [
        0.9930932521820068,
        1.0015239715576172
      ],
      "min": [
        -0.0006430335342884064,
        0.0
      ],
      "type": "VEC2"
    },
    {
      "bufferView": 0,
      "byteOffset": 17532,
      "componentType": 5125,
      "count": 18534,
      "type": "SCALAR"
    }
  ],
  "asset": {
    "extras": {
      "author": "BlackBirb (https://sketchfab.com/BlackBirb)",
      "license": "CC-BY-4.0 (http://creativecommons.org/licenses/by/4.0/)",
      "source": "https://sketchfab.com/3d-models/ancient-chinese-courtyard-house-ed4ea9eb5f024d989eec182d48fa72d8",
      "title": "Ancient Chinese Courtyard House"
    },
    "generator": "Sketchfab-16.72.0",
    "version": "2.0"
  },
  "bufferViews": [
    {
      "buffer": 0,
      "byteLength": 91668,
      "name": "floatBufferViews",
      "target": 34963
    },
    {
      "buffer": 0,
      "byteLength": 92128,
      "byteOffset": 91668,
      "byteStride": 8,
      "name": "floatBufferViews",
      "target": 34962
    },
    {
      "buffer": 0,
      "byteLength": 276384,
      "byteOffset": 183796,
      "byteStride": 12,
      "name": "floatBufferViews",
      "target": 34962
    },
    {
      "buffer": 0,
      "byteLength": 184256,
      "byteOffset": 460180,
      "byteStride": 16,
      "name": "floatBufferViews",
      "target": 34962
    }
  ],
  "buffers": [
    {
      "byteLength": 644436,
      "uri": "scene.bin"
    }
  ],
  "images": [
    {
      "uri": "textures/StingrayPBSwalls_baseColor.png"
    },
    {
      "uri": "textures/StingrayPBSwalls_metallicRoughness.png"
    },
    {
      "uri": "textures/StingrayPBSwalls_normal.png"
    },
    {
      "uri": "textures/StingrayPBSroof_baseColor.png"
    },
    {
      "uri": "textures/StingrayPBSroof_metallicRoughness.png"
    },
    {
      "uri": "textures/StingrayPBSroof_normal.png"
    }
  ],
  "materials": [
    {
      "doubleSided": true,
      "name": "StingrayPBSwalls",
      "normalTexture": {
        "index": 2
      },
      "pbrMetallicRoughness": {
        "baseColorTexture": {
          "index": 0
        },
        "metallicRoughnessTexture": {
          "index": 1
        }
      }
    },
    {
      "doubleSided": true,
      "name": "StingrayPBSroof",
      "normalTexture": {
        "index": 5
      },
      "pbrMetallicRoughness": {
        "baseColorTexture": {
          "index": 3
        },
        "metallicRoughnessTexture": {
          "index": 4
        }
      }
    }
  ],
  "meshes": [
    {
      "name": "PLASTER_OVEN1_StingrayPBSwalls_0",
      "primitives": [
        {
          "attributes": {
            "NORMAL": 1,
            "POSITION": 0,
            "TANGENT": 2,
            "TEXCOORD_0": 3
          },
          "indices": 4,
          "material": 0,
          "mode": 4
        }
      ]
    },
    {
      "name": "ROOF_WOODWORK3_StingrayPBSroof_0",
      "primitives": [
        {
          "attributes": {
            "NORMAL": 6,
            "POSITION": 5,
            "TANGENT": 7,
            "TEXCOORD_0": 8
          },
          "indices": 9,
          "material": 1,
          "mode": 4
        }
      ]
    }
  ],
  "nodes": [
    {
      "children": [
        1
      ],
      "matrix": [
        0.9332250952720642,
        0.0,
        0.0,
        0.0,
        0.0,
        2.072175975858102e-16,
        -0.9332250952720642,
        0.0,
        0.0,
        0.9332250952720642,
        2.072175975858102e-16,
        0.0,
        0.0,
        0.0,
        0.0,
        1.0
      ],
      "name": "Sketchfab_model"
    },
    {
      "children": [
        2
      ],
      "matrix": [
        1.0,
        0.0,
        0.0,
        0.0,
        0.0,
        0.0,
        1.0,
        0.0,
        0.0,
        -1.0,
        0.0,
        0.0,
        0.0,
        0.0,
        0.0,
        1.0
      ],
      "name": "chinese_courtyard_house.fbx"
    },
    {
      "children": [
        3,
        5
      ],
      "name": "RootNode"
    },
    {
      "children": [
        4
      ],
      "matrix": [
        0.009999999776482582,
        0.0,
        0.0,
        0.0,
        0.0,
        0.009999999776482582,
        0.0,
        0.0,
        0.0,
        0.0,
        0.009999999776482582,
        0.0,
        -7.105427357601002e-15,
        1.262177448353619e-29,
        0.0,
        1.0
      ],
      "name": "PLASTER_OVEN1"
    },
    {
      "mesh": 0,
      "name": "PLASTER_OVEN1_StingrayPBSwalls_0"
    },
    {
      "children": [
        6
      ],
      "matrix": [
        0.009999999776482582,
        0.0,
        0.0,
        0.0,
        0.0,
        0.009999999776482582,
        0.0,
        0.0,
        0.0,
        0.0,
        0.009999999776482582,
        0.0,
        0.0,
        0.0,
        0.0,
        1.0
      ],
      "name": "ROOF_WOODWORK3"
    },
    {
      "mesh": 1,
      "name": "ROOF_WOODWORK3_StingrayPBSroof_0"
    }
  ],
  "samplers": [
    {
      "magFilter": 9729,
      "minFilter": 9987,
      "wrapS": 10497,
      "wrapT": 10497
    }
  ],
  "scene": 0,
  "scenes": [
    {
      "name": "Sketchfab_Scene",
      "nodes": [
        0
      ]
    }
  ],
  "textures": [
    {
      "sampler": 0,
      "source": 0
    },
    {
      "sampler": 0,
      "source": 1
    },
    {
      "sampler": 0,
      "source": 2
    },
    {
      "sampler": 0,
      "source": 3
    },
    {
      "sampler": 0,
      "source": 4
    },
    {
      "sampler": 0,
      "source": 5
    }
  ]
}
