{"accessors":[{"bufferView":2,"componentType":5126,"count":88,"max":[7.5,0.6000000238418579,0.32499998807907104],"min":[-7.0,-0.6000000238418579,-0.07500000298023224],"type":"VEC3"},{"bufferView":2,"byteOffset":1056,"componentType":5126,"count":88,"max":[1.0,1.0,1.0],"min":[-1.0,-1.0,-1.0],"type":"VEC3"},{"bufferView":1,"componentType":5126,"count":88,"max":[0.8804639577865601,0.5320427417755127],"min":[0.30096036195755005,0.000284428708255291],"type":"VEC2"},{"bufferView":0,"componentType":5125,"count":180,"type":"SCALAR"},{"bufferView":2,"byteOffset":2112,"componentType":5126,"count":303,"max":[10.5,2.0,0.5999999642372131],"min":[-9.609895706176758,-1.8370635509490967,-0.10000008344650269],"type":"VEC3"},{"bufferView":2,"byteOffset":5748,"componentType":5126,"count":303,"max":[1.0,1.0,1.0],"min":[-1.0,-1.0,-1.0],"type":"VEC3"},{"bufferView":1,"byteOffset":704,"componentType":5126,"count":303,"max":[0.9934399724006653,0.9924020767211914],"min":[-0.0002247001975774765,-1.5661089491914026e-07],"type":"VEC2"},{"bufferView":0,"byteOffset":720,"componentType":5125,"count":519,"type":"SCALAR"},{"bufferView":2,"byteOffset":9384,"componentType":5126,"count":66,"max":[6.552042007446289,1.2330296039581299,0.6172412633895874],"min":[-1.7400009632110596,-1.2330296039581299,0.0],"type":"VEC3"},{"bufferView":2,"byteOffset":10176,"componentType":5126,"count":66,"max":[1.0,1.0,1.0],"min":[-1.0,-1.0,-1.0],"type":"VEC3"},{"bufferView":1,"byteOffset":3128,"componentType":5126,"count":66,"max":[0.9994177222251892,0.8712642192840576],"min":[0.32273155450820923,0.5199071764945984],"type":"VEC2"},{"bufferView":0,"byteOffset":2796,"componentType":5125,"count":96,"type":"SCALAR"}],"asset":{"extras":{"author":"swordmanck (https://sketchfab.com/Swordmanck)","license":"CC-BY-4.0 (http://creativecommons.org/licenses/by/4.0/)","source":"https://sketchfab.com/3d-models/ps1-arisaka-t30-bayonet-7e602410773d4a9b8ca1d5c523d06b13","title":"Ps1 Arisaka T30 Bayonet"},"generator":"Sketchfab-16.16.0","version":"2.0"},"bufferViews":[{"buffer":0,"byteLength":3180,"name":"floatBufferViews","target":34963},{"buffer":0,"byteLength":3656,"byteOffset":3180,"byteStride":8,"name":"floatBufferViews","target":34962},{"buffer":0,"byteLength":10968,"byteOffset":6836,"byteStride":12,"name":"floatBufferViews","target":34962}],"buffers":[{"byteLength":17804,"uri":"gltf.bin"}],"extensionsRequired":["KHR_materials_pbrSpecularGlossiness"],"extensionsUsed":["KHR_materials_pbrSpecularGlossiness"],"materials":[{"doubleSided":true,"extensions":{"KHR_materials_pbrSpecularGlossiness":{"diffuseFactor":[1.0,1.0,1.0,1.0],"glossinessFactor":0.4,"specularFactor":[0.0,0.0,0.0]}},"name":"Material_27"},{"doubleSided":true,"extensions":{"KHR_materials_pbrSpecularGlossiness":{"diffuseFactor":[1.0,1.0,1.0,1.0],"glossinessFactor":0.4,"specularFactor":[0.0,0.0,0.0]}},"name":"Material_26"},{"doubleSided":true,"extensions":{"KHR_materials_pbrSpecularGlossiness":{"diffuseFactor":[1.0,1.0,1.0,1.0],"glossinessFactor":0.4,"specularFactor":[0.0,0.0,0.0]}},"name":"Material_28"}],"meshes":[{"name":"Arisaka-T30-scaberd_Material #27_0","primitives":[{"attributes":{"NORMAL":1,"POSITION":0,"TEXCOORD_0":2},"indices":3,"material":0,"mode":4}]},{"name":"Arisaka-T30-Bayonet_Material #26_0","primitives":[{"attributes":{"NORMAL":5,"POSITION":4,"TEXCOORD_0":6},"indices":7,"material":1,"mode":4}]},{"name":"Arisaka-T30-belt_Material #28_0","primitives":[{"attributes":{"NORMAL":9,"POSITION":8,"TEXCOORD_0":10},"indices":11,"material":2,"mode":4}]}],"nodes":[{"children":[1],"matrix":[1.0,0.0,0.0,0.0,0.0,2.220446049250313e-16,-1.0,0.0,0.0,1.0,2.220446049250313e-16,0.0,0.0,0.0,0.0,1.0],"name":"Sketchfab_model"},{"children":[2],"matrix":[0.02539999969303608,0.0,0.0,0.0,0.0,0.0,0.02539999969303608,0.0,0.0,-0.02539999969303608,0.0,0.0,0.0,0.0,0.0,1.0],"name":"Arisaka-T30-Bayonet.fbx"},{"children":[3,6,9],"name":"RootNode"},{"children":[4],"matrix":[1.0,0.0,0.0,0.0,0.0,2.220446049250313e-16,-1.0,0.0,0.0,1.0,2.220446049250313e-16,0.0,-3.4760000705718994,-7.450580596923828e-09,0.0,1.0],"name":"Arisaka-T30-scaberd"},{"children":[5],"matrix":[1.0,0.0,-0.0,0.0,0.0,1.0,0.0,0.0,0.0,0.0,1.0,0.0,7.000000953674316,0.0,-0.1249999925494194,1.0],"name":"Object_4"},{"mesh":0,"name":"Arisaka-T30-scaberd_Material #27_0"},{"children":[7],"matrix":[1.0,0.0,0.0,0.0,0.0,2.220446049250313e-16,-1.0,0.0,0.0,1.0,2.220446049250313e-16,0.0,-7.0,0.0,0.0,1.0],"name":"Arisaka-T30-Bayonet"},{"children":[8],"matrix":[1.0,0.0,-0.0,0.0,0.0,1.0,0.0,0.0,0.0,0.0,1.0,0.0,7.0,0.0,-0.25,1.0],"name":"Object_7"},{"mesh":1,"name":"Arisaka-T30-Bayonet_Material #26_0"},{"children":[10],"matrix":[1.0,0.0,0.0,0.0,0.0,2.220446049250313e-16,-1.0,0.0,0.0,1.0,2.220446049250313e-16,0.0,-8.01186752319336,-0.3499999940395355,0.05291447788476944,1.0],"name":"Arisaka-T30-belt"},{"children":[11],"matrix":[1.0,0.0,-0.0,0.0,0.0,1.0,0.0,0.0,0.0,0.0,1.0,0.0,0.0,-2.8806272922565768e-09,-0.05024123191833496,1.0],"name":"Object_10"},{"mesh":2,"name":"Arisaka-T30-belt_Material #28_0"}],"scene":0,"scenes":[{"name":"Sketchfab_Scene","nodes":[0]}]}