{
  "asset": {
    "generator": "Khronos glTF Blender I/O v4.1.63",
    "version": "2.0"
  },
  "scene": 0,
  "scenes": [
    {
      "name": "Scene",
      "nodes": [
        0
      ]
    }
  ],
  "nodes": [
    {
      "mesh": 0,
      "name": "chinese_stool",
      "rotation": [
        0,
        -0.7071068286895752,
        0,
        0.7071068286895752
      ]
    }
  ],
  "materials": [
    {
      "doubleSided": true,
      "name": "chinese_stool",
      "normalTexture": {
        "index": 0
      },
      "pbrMetallicRoughness": {
        "baseColorTexture": {
          "index": 1
        },
        "metallicFactor": 0,
        "metallicRoughnessTexture": {
          "index": 2
        }
      }
    }
  ],
  "meshes": [
    {
      "name": "Plane.003",
      "primitives": [
        {
          "attributes": {
            "POSITION": 0,
            "NORMAL": 1,
            "TEXCOORD_0": 2
          },
          "indices": 3,
          "material": 0
        }
      ]
    }
  ],
  "textures": [
    {
      "sampler": 0,
      "source": 0
    },
    {
      "sampler": 0,
      "source": 1
    },
    {
      "sampler": 0,
      "source": 2
    }
  ],
  "images": [
    {
      "mimeType": "image/jpeg",
      "name": "chinese_stool_nor_gl",
      "uri": "textures/chinese_stool_nor_gl_1k.jpg"
    },
    {
      "mimeType": "image/jpeg",
      "name": "chinese_stool_diff",
      "uri": "textures/chinese_stool_diff_1k.jpg"
    },
    {
      "mimeType": "image/jpeg",
      "name": "chinese_stool_rough",
      "uri": "textures/chinese_stool_arm_1k.jpg"
    }
  ],
  "accessors": [
    {
      "bufferView": 0,
      "componentType": 5126,
      "count": 1051,
      "max": [
        0.2546416223049164,
        0.6305584907531738,
        0.30026543140411377
      ],
      "min": [
        -0.2517642378807068,
        -8.019227060174217e-9,
        -0.2987077832221985
      ],
      "type": "VEC3"
    },
    {
      "bufferView": 1,
      "componentType": 5126,
      "count": 1051,
      "type": "VEC3"
    },
    {
      "bufferView": 2,
      "componentType": 5126,
      "count": 1051,
      "type": "VEC2"
    },
    {
      "bufferView": 3,
      "componentType": 5123,
      "count": 3270,
      "type": "SCALAR"
    }
  ],
  "bufferViews": [
    {
      "buffer": 0,
      "byteLength": 12612,
      "byteOffset": 0,
      "target": 34962
    },
    {
      "buffer": 0,
      "byteLength": 12612,
      "byteOffset": 12612,
      "target": 34962
    },
    {
      "buffer": 0,
      "byteLength": 8408,
      "byteOffset": 25224,
      "target": 34962
    },
    {
      "buffer": 0,
      "byteLength": 6540,
      "byteOffset": 33632,
      "target": 34963
    }
  ],
  "samplers": [
    {
      "magFilter": 9729,
      "minFilter": 9987
    }
  ],
  "buffers": [
    {
      "byteLength": 40172,
      "uri": "chinese_stool.bin"
    }
  ]
}