{
  "accessors": [
    {
      "bufferView": 2,
      "componentType": 5126,
      "count": 5574,
      "max": [
        1.2122775316238403,
        2.4805097579956055,
        -0.05738556757569313
      ],
      "min": [
        -1.2122775316238403,
        -3.249476909637451,
        -1.788023829460144
      ],
      "type": "VEC3"
    },
    {
      "bufferView": 2,
      "byteOffset": 66888,
      "componentType": 5126,
      "count": 5574,
      "max": [
        1.0,
        1.0,
        1.0
      ],
      "min": [
        -1.0,
        -1.0,
        -1.0
      ],
      "type": "VEC3"
    },
    {
      "bufferView": 3,
      "componentType": 5126,
      "count": 5574,
      "max": [
        1.0,
        1.0,
        1.0,
        1.0
      ],
      "min": [
        -1.0,
        -1.0,
        -1.0,
        -1.0
      ],
      "type": "VEC4"
    },
    {
      "bufferView": 1,
      "componentType": 5126,
      "count": 5574,
      "max": [
        0.49652501940727234,
        0.9974128007888794
      ],
      "min": [
        0.0025871992111206055,
        0.5025871992111206
      ],
      "type": "VEC2"
    },
    {
      "bufferView": 1,
      "byteOffset": 44592,
      "componentType": 5126,
      "count": 5574,
      "max": [
        0.0,
        0.0
      ],
      "min": [
        0.0,
        0.0
      ],
      "type": "VEC2"
    },
    {
      "bufferView": 0,
      "componentType": 5125,
      "count": 10509,
      "type": "SCALAR"
    },
    {
      "bufferView": 2,
      "byteOffset": 133776,
      "componentType": 5126,
      "count": 336,
      "max": [
        1.1748656034469604,
        2.541527271270752,
        7.412326397115976e-08
      ],
      "min": [
        -1.1748656034469604,
        -2.541527032852173,
        -1.2938653230667114
      ],
      "type": "VEC3"
    },
    {
      "bufferView": 2,
      "byteOffset": 137808,
      "componentType": 5126,
      "count": 336,
      "max": [
        1.0,
        0.999575674533844,
        0.9984768629074097
      ],
      "min": [
        -1.0,
        -0.999607264995575,
        -0.9985639452934265
      ],
      "type": "VEC3"
    },
    {
      "bufferView": 3,
      "byteOffset": 89184,
      "componentType": 5126,
      "count": 336,
      "max": [
        2.4316868802998215e-06,
        0.9985687732696533,
        0.999607264995575,
        1.0
      ],
      "min": [
        -2.4316868802998215e-06,
        -1.0,
        -0.9983016848564148,
        -1.0
      ],
      "type": "VEC4"
    },
    {
      "bufferView": 1,
      "byteOffset": 89184,
      "componentType": 5126,
      "count": 336,
      "max": [
        3.7078604698181152,
        0.5242071151733398
      ],
      "min": [
        0.04874294251203537,
        0.01799231767654419
      ],
      "type": "VEC2"
    },
    {
      "bufferView": 1,
      "byteOffset": 91872,
      "componentType": 5126,
      "count": 336,
      "max": [
        0.0,
        0.0
      ],
      "min": [
        0.0,
        0.0
      ],
      "type": "VEC2"
    },
    {
      "bufferView": 0,
      "byteOffset": 42036,
      "componentType": 5125,
      "count": 960,
      "type": "SCALAR"
    },
    {
      "bufferView": 2,
      "byteOffset": 141840,
      "componentType": 5126,
      "count": 209,
      "max": [
        0.7319355607032776,
        0.7905610203742981,
        -0.0
      ],
      "min": [
        -0.7319356203079224,
        -0.9429823160171509,
        -0.9069005250930786
      ],
      "type": "VEC3"
    },
    {
      "bufferView": 2,
      "byteOffset": 144348,
      "componentType": 5126,
      "count": 209,
      "max": [
        0.9829819798469543,
        0.9893275499343872,
        1.0
      ],
      "min": [
        -0.9829819798469543,
        -1.0,
        -1.0
      ],
      "type": "VEC3"
    },
    {
      "bufferView": 3,
      "byteOffset": 94560,
      "componentType": 5126,
      "count": 209,
      "max": [
        1.0,
        0.9854004383087158,
        0.9911137223243713,
        1.0
      ],
      "min": [
        -0.9999195337295532,
        -0.9506415724754333,
        -1.0,
        1.0
      ],
      "type": "VEC4"
    },
    {
      "bufferView": 1,
      "byteOffset": 94560,
      "componentType": 5126,
      "count": 209,
      "max": [
        0.6246590614318848,
        0.9915196895599365
      ],
      "min": [
        0.5003409385681152,
        0.8753409385681152
      ],
      "type": "VEC2"
    },
    {
      "bufferView": 1,
      "byteOffset": 96232,
      "componentType": 5126,
      "count": 209,
      "max": [
        0.0,
        0.0
      ],
      "min": [
        0.0,
        0.0
      ],
      "type": "VEC2"
    },
    {
      "bufferView": 0,
      "byteOffset": 45876,
      "componentType": 5125,
      "count": 516,
      "type": "SCALAR"
    },
    {
      "bufferView": 2,
      "byteOffset": 146856,
      "componentType": 5126,
      "count": 158,
      "max": [
        0.04542640596628189,
        0.7184513807296753,
        0.08156263828277588
      ],
      "min": [
        -0.04542652145028114,
        -2.384185791015625e-07,
        -0.08156239986419678
      ],
      "type": "VEC3"
    },
    {
      "bufferView": 2,
      "byteOffset": 148752,
      "componentType": 5126,
      "count": 158,
      "max": [
        1.0,
        1.0,
        1.0
      ],
      "min": [
        -1.0,
        -1.0,
        -1.0
      ],
      "type": "VEC3"
    },
    {
      "bufferView": 3,
      "byteOffset": 97904,
      "componentType": 5126,
      "count": 158,
      "max": [
        1.0,
        0.03916170820593834,
        1.0,
        1.0
      ],
      "min": [
        -1.0,
        -0.393385648727417,
        -1.0,
        1.0
      ],
      "type": "VEC4"
    },
    {
      "bufferView": 1,
      "byteOffset": 97904,
      "componentType": 5126,
      "count": 158,
      "max": [
        0.5618877410888672,
        0.5613479614257813
      ],
      "min": [
        0.5006122589111328,
        0.5006122589111328
      ],
      "type": "VEC2"
    },
    {
      "bufferView": 1,
      "byteOffset": 99168,
      "componentType": 5126,
      "count": 158,
      "max": [
        0.0,
        0.0
      ],
      "min": [
        0.0,
        0.0
      ],
      "type": "VEC2"
    },
    {
      "bufferView": 0,
      "byteOffset": 47940,
      "componentType": 5125,
      "count": 282,
      "type": "SCALAR"
    }
  ],
  "asset": {
    "extras": {
      "author": "snrnsrk5 (https://sketchfab.com/snrnsrk5)",
      "license": "CC-BY-4.0 (http://creativecommons.org/licenses/by/4.0/)",
      "source": "https://sketchfab.com/3d-models/type-89-i-go-chi-ro-fe3f1f483bc043c6a0907eee444a1e43",
      "title": "Type 89 I-Go (Chi-Ro)"
    },
    "generator": "Sketchfab-15.20.0",
    "version": "2.0"
  },
  "bufferViews": [
    {
      "buffer": 0,
      "byteLength": 49068,
      "name": "floatBufferViews",
      "target": 34963
    },
    {
      "buffer": 0,
      "byteLength": 100432,
      "byteOffset": 49068,
      "byteStride": 8,
      "name": "floatBufferViews",
      "target": 34962
    },
    {
      "buffer": 0,
      "byteLength": 150648,
      "byteOffset": 149500,
      "byteStride": 12,
      "name": "floatBufferViews",
      "target": 34962
    },
    {
      "buffer": 0,
      "byteLength": 100432,
      "byteOffset": 300148,
      "byteStride": 16,
      "name": "floatBufferViews",
      "target": 34962
    }
  ],
  "buffers": [
    {
      "byteLength": 400580,
      "uri": "scene.bin"
    }
  ],
  "extensionsUsed": [
    "KHR_materials_specular"
  ],
  "images": [
    {
      "uri": "textures/Type_89_baseColor.png"
    },
    {
      "uri": "textures/Type_89_normal.png"
    },
    {
      "uri": "textures/Track_baseColor.png"
    },
    {
      "uri": "textures/Track_normal.png"
    }
  ],
  "materials": [
    {
      "doubleSided": true,
      "extensions": {
        "KHR_materials_specular": {
          "specularColorFactor": [
            1.0,
            1.0,
            1.0
          ],
          "specularFactor": 0.0
        }
      },
      "name": "Type_89",
      "normalTexture": {
        "index": 1
      },
      "pbrMetallicRoughness": {
        "baseColorTexture": {
          "index": 0
        },
        "metallicFactor": 0.0,
        "roughnessFactor": 0.0
      }
    },
    {
      "doubleSided": true,
      "extensions": {
        "KHR_materials_specular": {
          "specularColorFactor": [
            1.0,
            1.0,
            1.0
          ],
          "specularFactor": 0.0
        }
      },
      "name": "Track",
      "normalTexture": {
        "index": 3
      },
      "pbrMetallicRoughness": {
        "baseColorTexture": {
          "index": 2
        },
        "metallicFactor": 0.0
      }
    }
  ],
  "meshes": [
    {
      "name": "Object_0",
      "primitives": [
        {
          "attributes": {
            "NORMAL": 1,
            "POSITION": 0,
            "TANGENT": 2,
            "TEXCOORD_0": 3,
            "TEXCOORD_1": 4
          },
          "indices": 5,
          "material": 0,
          "mode": 4
        }
      ]
    },
    {
      "name": "Object_1",
      "primitives": [
        {
          "attributes": {
            "NORMAL": 7,
            "POSITION": 6,
            "TANGENT": 8,
            "TEXCOORD_0": 9,
            "TEXCOORD_1": 10
          },
          "indices": 11,
          "material": 1,
          "mode": 4
        }
      ]
    },
    {
      "name": "Object_2",
      "primitives": [
        {
          "attributes": {
            "NORMAL": 13,
            "POSITION": 12,
            "TANGENT": 14,
            "TEXCOORD_0": 15,
            "TEXCOORD_1": 16
          },
          "indices": 17,
          "material": 0,
          "mode": 4
        }
      ]
    },
    {
      "name": "Object_3",
      "primitives": [
        {
          "attributes": {
            "NORMAL": 19,
            "POSITION": 18,
            "TANGENT": 20,
            "TEXCOORD_0": 21,
            "TEXCOORD_1": 22
          },
          "indices": 23,
          "material": 0,
          "mode": 4
        }
      ]
    }
  ],
  "nodes": [
    {
      "children": [
        1
      ],
      "matrix": [
        1.0,
        0.0,
        0.0,
        0.0,
        0.0,
        2.220446049250313e-16,
        -1.0,
        0.0,
        0.0,
        1.0,
        2.220446049250313e-16,
        0.0,
        0.0,
        0.0,
        0.0,
        1.0
      ],
      "name": "Sketchfab_model"
    },
    {
      "children": [
        2
      ],
      "name": "root"
    },
    {
      "children": [
        3
      ],
      "matrix": [
        1.0,
        0.0,
        0.0,
        0.0,
        0.0,
        2.220446049250313e-16,
        1.0,
        0.0,
        0.0,
        -1.0,
        2.220446049250313e-16,
        0.0,
        0.0,
        0.0,
        0.0,
        1.0
      ],
      "name": "GLTF_SceneRootNode"
    },
    {
      "children": [
        4,
        5,
        7
      ],
      "matrix": [
        -0.9999999999999944,
        7.549790336464297e-08,
        7.549790336464297e-08,
        0.0,
        -7.549790336464297e-08,
        2.7755575615628914e-15,
        -0.9999999999999972,
        0.0,
        -7.549790336464297e-08,
        -0.9999999999999972,
        2.7755575615628914e-15,
        0.0,
        0.0,
        0.0,
        -0.07650208473205566,
        1.0
      ],
      "name": "Type 89 Hull_1_3"
    },
    {
      "mesh": 0,
      "name": "Object_4"
    },
    {
      "children": [
        6
      ],
      "name": "Type 89 Track_1_0"
    },
    {
      "mesh": 1,
      "name": "Object_6"
    },
    {
      "children": [
        8,
        9
      ],
      "matrix": [
        1.0,
        0.0,
        0.0,
        0.0,
        0.0,
        1.0,
        0.0,
        0.0,
        0.0,
        0.0,
        1.0,
        0.0,
        0.0,
        0.6874282956123352,
        -1.788023829460144,
        1.0
      ],
      "name": "Type 89 Turret_1_2"
    },
    {
      "mesh": 2,
      "name": "Object_8"
    },
    {
      "children": [
        10
      ],
      "matrix": [
        1.0,
        0.0,
        0.0,
        0.0,
        0.0,
        1.0,
        0.0,
        0.0,
        0.0,
        0.0,
        1.0,
        0.0,
        0.0,
        0.703772783279419,
        -0.33330756425857544,
        1.0
      ],
      "name": "Type 89 Barrel_1_1"
    },
    {
      "mesh": 3,
      "name": "Object_10"
    }
  ],
  "samplers": [
    {
      "magFilter": 9729,
      "minFilter": 9987,
      "wrapS": 10497,
      "wrapT": 10497
    }
  ],
  "scene": 0,
  "scenes": [
    {
      "name": "Sketchfab_Scene",
      "nodes": [
        0
      ]
    }
  ],
  "textures": [
    {
      "sampler": 0,
      "source": 0
    },
    {
      "sampler": 0,
      "source": 1
    },
    {
      "sampler": 0,
      "source": 2
    },
    {
      "sampler": 0,
      "source": 3
    }
  ]
}
