{
  "accessors": [
    {
      "bufferView": 1,
      "componentType": 5126,
      "count": 1136,
      "max": [
        16.948471069335938,
        0.8564088344573975,
        1.0143630504608154
      ],
      "min": [
        -41.241580963134766,
        -0.8564088344573975,
        -7.5460591316223145
      ],
      "type": "VEC3"
    },
    {
      "bufferView": 1,
      "byteOffset": 13632,
      "componentType": 5126,
      "count": 1136,
      "max": [
        1.0,
        1.0,
        1.0
      ],
      "min": [
        -1.0,
        -1.0,
        -1.0
      ],
      "type": "VEC3"
    },
    {
      "bufferView": 0,
      "componentType": 5125,
      "count": 1290,
      "type": "SCALAR"
    },
    {
      "bufferView": 1,
      "byteOffset": 27264,
      "componentType": 5126,
      "count": 658,
      "max": [
        -6.969560146331787,
        0.8471355438232422,
        1.7964140176773071
      ],
      "min": [
        -24.63197135925293,
        -3.1943893432617188,
        0.35350194573402405
      ],
      "type": "VEC3"
    },
    {
      "bufferView": 1,
      "byteOffset": 35160,
      "componentType": 5126,
      "count": 658,
      "max": [
        1.0,
        1.0,
        1.0
      ],
      "min": [
        -1.0,
        -1.0,
        -1.0
      ],
      "type": "VEC3"
    },
    {
      "bufferView": 0,
      "byteOffset": 5160,
      "componentType": 5125,
      "count": 732,
      "type": "SCALAR"
    },
    {
      "bufferView": 1,
      "byteOffset": 43056,
      "componentType": 5126,
      "count": 1287,
      "max": [
        22.19809913635254,
        0.898604691028595,
        2.066316604614258
      ],
      "min": [
        -16.270124435424805,
        -1.2404372692108154,
        -0.6358300447463989
      ],
      "type": "VEC3"
    },
    {
      "bufferView": 1,
      "byteOffset": 58500,
      "componentType": 5126,
      "count": 1287,
      "max": [
        1.0,
        1.0,
        1.0
      ],
      "min": [
        -1.0,
        -1.0,
        -1.0
      ],
      "type": "VEC3"
    },
    {
      "bufferView": 0,
      "byteOffset": 8088,
      "componentType": 5125,
      "count": 1890,
      "type": "SCALAR"
    },
    {
      "bufferView": 1,
      "byteOffset": 73944,
      "componentType": 5126,
      "count": 1362,
      "max": [
        -6.92243766784668,
        0.6596111059188843,
        2.265225887298584
      ],
      "min": [
        -25.553802490234375,
        -0.4418569505214691,
        -2.8641557693481445
      ],
      "type": "VEC3"
    },
    {
      "bufferView": 1,
      "byteOffset": 90288,
      "componentType": 5126,
      "count": 1362,
      "max": [
        1.0,
        1.0,
        1.0
      ],
      "min": [
        -1.0,
        -1.0,
        -1.0
      ],
      "type": "VEC3"
    },
    {
      "bufferView": 0,
      "byteOffset": 15648,
      "componentType": 5125,
      "count": 1890,
      "type": "SCALAR"
    },
    {
      "bufferView": 1,
      "byteOffset": 106632,
      "componentType": 5126,
      "count": 2352,
      "max": [
        21.784862518310547,
        0.8595717549324036,
        1.5689135789871216
      ],
      "min": [
        -41.366355895996094,
        -0.859571635723114,
        -7.569946765899658
      ],
      "type": "VEC3"
    },
    {
      "bufferView": 1,
      "byteOffset": 134856,
      "componentType": 5126,
      "count": 2352,
      "max": [
        1.0,
        1.0,
        1.0
      ],
      "min": [
        -1.0,
        -1.0,
        -1.0
      ],
      "type": "VEC3"
    },
    {
      "bufferView": 0,
      "byteOffset": 23208,
      "componentType": 5125,
      "count": 2592,
      "type": "SCALAR"
    }
  ],
  "asset": {
    "extras": {
      "author": "TastyTony (https://sketchfab.com/TastyTony)",
      "license": "CC-BY-4.0 (http://creativecommons.org/licenses/by/4.0/)",
      "source": "https://sketchfab.com/3d-models/low-poly-gewehr-88-d782cbddbaaa4680aa9a28f7b4a1e635",
      "title": "Low-Poly Gewehr 88"
    },
    "generator": "Sketchfab-15.10.0",
    "version": "2.0"
  },
  "bufferViews": [
    {
      "buffer": 0,
      "byteLength": 33576,
      "name": "floatBufferViews",
      "target": 34963
    },
    {
      "buffer": 0,
      "byteLength": 163080,
      "byteOffset": 33576,
      "byteStride": 12,
      "name": "floatBufferViews",
      "target": 34962
    }
  ],
  "buffers": [
    {
      "byteLength": 196656,
      "uri": "scene.bin"
    }
  ],
  "extensionsUsed": [
    "KHR_materials_specular"
  ],
  "materials": [
    {
      "doubleSided": true,
      "extensions": {
        "KHR_materials_specular": {
          "specularColorFactor": [
            1.0,
            1.0,
            1.0
          ],
          "specularFactor": 0.0
        }
      },
      "name": "Material",
      "pbrMetallicRoughness": {
        "baseColorFactor": [
          0.06407854822954259,
          0.042142201924983566,
          0.03367730860818518,
          1.0
        ],
        "metallicFactor": 0.0
      }
    },
    {
      "doubleSided": true,
      "extensions": {
        "KHR_materials_specular": {
          "specularColorFactor": [
            1.0,
            1.0,
            1.0
          ],
          "specularFactor": 0.0
        }
      },
      "name": "Material.006",
      "pbrMetallicRoughness": {
        "baseColorFactor": [
          0.05992742547385341,
          0.05992742547385341,
          0.05992742547385341,
          1.0
        ],
        "metallicFactor": 0.0
      }
    },
    {
      "doubleSided": true,
      "extensions": {
        "KHR_materials_specular": {
          "specularColorFactor": [
            1.0,
            1.0,
            1.0
          ],
          "specularFactor": 0.0
        }
      },
      "name": "Material.005",
      "pbrMetallicRoughness": {
        "baseColorFactor": [
          0.03253092148000533,
          0.03253092148000533,
          0.03253092148000533,
          1.0
        ],
        "metallicFactor": 0.0
      }
    },
    {
      "doubleSided": true,
      "extensions": {
        "KHR_materials_specular": {
          "specularColorFactor": [
            1.0,
            1.0,
            1.0
          ],
          "specularFactor": 0.0
        }
      },
      "name": "Material.007",
      "pbrMetallicRoughness": {
        "baseColorFactor": [
          0.047356812220135304,
          0.047356812220135304,
          0.047356812220135304,
          1.0
        ],
        "metallicFactor": 0.0
      }
    },
    {
      "doubleSided": true,
      "extensions": {
        "KHR_materials_specular": {
          "specularColorFactor": [
            1.0,
            1.0,
            1.0
          ],
          "specularFactor": 0.0
        }
      },
      "name": "Material.004",
      "pbrMetallicRoughness": {
        "baseColorFactor": [
          0.037735384595491535,
          0.037735384595491535,
          0.037735384595491535,
          1.0
        ],
        "metallicFactor": 0.0
      }
    }
  ],
  "meshes": [
    {
      "name": "Cube_Material_0",
      "primitives": [
        {
          "attributes": {
            "NORMAL": 1,
            "POSITION": 0
          },
          "indices": 2,
          "material": 0,
          "mode": 4
        }
      ]
    },
    {
      "name": "Cube_Material.006_0",
      "primitives": [
        {
          "attributes": {
            "NORMAL": 4,
            "POSITION": 3
          },
          "indices": 5,
          "material": 1,
          "mode": 4
        }
      ]
    },
    {
      "name": "Cube_Material.005_0",
      "primitives": [
        {
          "attributes": {
            "NORMAL": 7,
            "POSITION": 6
          },
          "indices": 8,
          "material": 2,
          "mode": 4
        }
      ]
    },
    {
      "name": "Cube_Material.007_0",
      "primitives": [
        {
          "attributes": {
            "NORMAL": 10,
            "POSITION": 9
          },
          "indices": 11,
          "material": 3,
          "mode": 4
        }
      ]
    },
    {
      "name": "Cube_Material.004_0",
      "primitives": [
        {
          "attributes": {
            "NORMAL": 13,
            "POSITION": 12
          },
          "indices": 14,
          "material": 4,
          "mode": 4
        }
      ]
    }
  ],
  "nodes": [
    {
      "children": [
        1
      ],
      "matrix": [
        0.0031236051581799984,
        0.0,
        0.0,
        0.0,
        0.0,
        6.935796732898677e-19,
        -0.0031236051581799984,
        0.0,
        0.0,
        0.0031236051581799984,
        6.935796732898677e-19,
        0.0,
        0.0,
        0.0,
        0.0,
        1.0
      ],
      "name": "Sketchfab_model"
    },
    {
      "children": [
        2
      ],
      "matrix": [
        1.0,
        0.0,
        0.0,
        0.0,
        0.0,
        0.0,
        1.0,
        0.0,
        0.0,
        -1.0,
        0.0,
        0.0,
        0.0,
        0.0,
        0.0,
        1.0
      ],
      "name": "a05b1620648947dfb9ba83993e2b8a96.fbx"
    },
    {
      "children": [
        3
      ],
      "name": "RootNode"
    },
    {
      "children": [
        4,
        5,
        6,
        7,
        8
      ],
      "matrix": [
        14.980226516723633,
        0.0,
        -5.260869902652076e-20,
        0.0,
        -5.2608699026520064e-20,
        -2.4405886815481424e-06,
        -14.980226516723436,
        0.0,
        -8.571044991902118e-27,
        14.980226516723436,
        -2.4405886815481424e-06,
        0.0,
        138.95079040527344,
        24.437843322753906,
        3.2834386729518883e-06,
        1.0
      ],
      "name": "Cube"
    },
    {
      "mesh": 0,
      "name": "Cube_Material_0"
    },
    {
      "mesh": 1,
      "name": "Cube_Material.006_0"
    },
    {
      "mesh": 2,
      "name": "Cube_Material.005_0"
    },
    {
      "mesh": 3,
      "name": "Cube_Material.007_0"
    },
    {
      "mesh": 4,
      "name": "Cube_Material.004_0"
    }
  ],
  "scene": 0,
  "scenes": [
    {
      "name": "Sketchfab_Scene",
      "nodes": [
        0
      ]
    }
  ]
}
