{"accessors":[{"bufferView":2,"componentType":5126,"count":10839,"max":[0.22487984597682953,1.7622323036193848,0.2935408651828766],"min":[-0.31711873412132263,-5.209080219268799,-0.4352467358112335],"type":"VEC3"},{"bufferView":2,"byteOffset":130068,"componentType":5126,"count":10839,"max":[1.0,1.0,1.0],"min":[-1.0,-1.0,-1.0],"type":"VEC3"},{"bufferView":3,"componentType":5126,"count":10839,"max":[1.0,1.0,1.0,1.0],"min":[-1.0,-1.0,-1.0,1.0],"type":"VEC4"},{"bufferView":1,"componentType":5126,"count":10839,"max":[0.9996713995933533,0.9709311127662659],"min":[0.00038057565689086914,0.0003431588411331177],"type":"VEC2"},{"bufferView":0,"componentType":5125,"count":43359,"type":"SCALAR"}],"asset":{"extras":{"author":"PL_historyfan_K (https://sketchfab.com/PL_historyfan_K)","license":"CC-BY-4.0 (http://creativecommons.org/licenses/by/4.0/)","source":"https://sketchfab.com/3d-models/seitengewehr-849834-612c3e0c56534d988622f825fc5491c8","title":"Seitengewehr 84/98/34"},"generator":"Sketchfab-16.33.0","version":"2.0"},"bufferViews":[{"buffer":0,"byteLength":173436,"name":"floatBufferViews","target":34963},{"buffer":0,"byteLength":86712,"byteOffset":173436,"byteStride":8,"name":"floatBufferViews","target":34962},{"buffer":0,"byteLength":260136,"byteOffset":260148,"byteStride":12,"name":"floatBufferViews","target":34962},{"buffer":0,"byteLength":173424,"byteOffset":520284,"byteStride":16,"name":"floatBufferViews","target":34962}],"buffers":[{"byteLength":693708,"uri":"scene.bin"}],"materials":[{"doubleSided":true,"name":"Scene_-_Root","pbrMetallicRoughness":{}}],"meshes":[{"name":"Plane.009__0","primitives":[{"attributes":{"NORMAL":1,"POSITION":0,"TANGENT":2,"TEXCOORD_0":3},"indices":4,"material":0,"mode":4}]}],"nodes":[{"children":[1],"matrix":[1.0,0.0,0.0,0.0,0.0,2.220446049250313e-16,-1.0,0.0,0.0,1.0,2.220446049250313e-16,0.0,0.0,0.0,0.0,1.0],"name":"Sketchfab_model"},{"children":[2],"matrix":[0.009999999776482582,0.0,0.0,0.0,0.0,0.0,0.009999999776482582,0.0,0.0,-0.009999999776482582,0.0,0.0,0.0,0.0,0.0,1.0],"name":"7779a05d71534bf295829ba579fb9a85.fbx"},{"children":[3,5,8,11,14],"name":"RootNode"},{"children":[4],"matrix":[100.0,0.0,0.0,0.0,0.0,-1.629206793918314e-05,-99.99999999999868,0.0,0.0,99.99999999999868,-1.629206793918314e-05,0.0,0.0,0.0,0.0,1.0],"name":"Plane.009"},{"mesh":0,"name":"Plane.009__0"},{"children":[6],"matrix":[-29.086477364379697,-5.518905590722295,-95.51711910171437,0.0,56.63932069164076,79.46722539115298,-21.839126361216156,0.0,77.11007920637729,-60.452475336912016,-19.988344364310564,0.0,407.6245422363281,590.38623046875,-100.54539489746094,1.0],"name":"Light.003"},{"children":[7],"matrix":[1.0,0.0,0.0,0.0,0.0,2.220446049250313e-16,1.0,0.0,0.0,-1.0,2.220446049250313e-16,0.0,0.0,0.0,0.0,1.0],"name":"Object_6"},{"name":"Object_7"},{"children":[9],"matrix":[29.0864905486966,-5.518901356934997,95.51710734404077,0.0,-56.63930763742391,79.46723373604185,21.83912985204642,0.0,-77.1100888677747,-60.45246932744977,19.988363437175064,0.0,407.6245422363281,590.38623046875,-100.54539489746094,1.0],"name":"Light.004"},{"children":[10],"matrix":[1.0,0.0,0.0,0.0,0.0,2.220446049250313e-16,1.0,0.0,0.0,-1.0,2.220446049250313e-16,0.0,0.0,0.0,0.0,1.0],"name":"Object_9"},{"name":"Object_10"},{"children":[12],"matrix":[3.139164788112936e-05,-99.99999999999507,-1.5282012593534682e-12,0.0,99.99999999999287,3.139164788112936e-05,-2.0985669380024625e-05,0.0,2.098566938002407e-05,5.059546176249095e-12,99.9999999999978,0.0,266.45318603515625,39.14561462402344,-100.54546356201172,1.0],"name":"Light.005"},{"children":[13],"matrix":[1.0,0.0,0.0,0.0,0.0,2.220446049250313e-16,1.0,0.0,0.0,-1.0,2.220446049250313e-16,0.0,0.0,0.0,0.0,1.0],"name":"Object_12"},{"name":"Object_13"},{"children":[15],"matrix":[-76.92976673984695,-6.60840599391497,-63.546360710683715,0.0,-5.094955441660709,99.78140593426794,-4.208617210952936,0.0,63.68557464921103,-2.0640352823078634e-05,-77.09829817576615,0.0,628.1101684570312,77.321533203125,781.6340942382812,1.0],"name":"Camera"},{"name":"Object_15"}],"scene":0,"scenes":[{"name":"Sketchfab_Scene","nodes":[0]}]}