{
  "accessors": [
    {
      "bufferView": 2,
      "componentType": 5126,
      "count": 4685,
      "max": [
        1.156666874885559,
        2.7167160511016846,
        -0.051383811980485916
      ],
      "min": [
        -1.156667947769165,
        -2.748161554336548,
        -1.56650972366333
      ],
      "type": "VEC3"
    },
    {
      "bufferView": 2,
      "byteOffset": 56220,
      "componentType": 5126,
      "count": 4685,
      "max": [
        1.0,
        1.0,
        1.0
      ],
      "min": [
        -1.0,
        -1.0,
        -1.0
      ],
      "type": "VEC3"
    },
    {
      "bufferView": 3,
      "componentType": 5126,
      "count": 4685,
      "max": [
        1.0,
        1.0,
        1.0,
        1.0
      ],
      "min": [
        -1.0,
        -1.0,
        -1.0,
        -1.0
      ],
      "type": "VEC4"
    },
    {
      "bufferView": 1,
      "componentType": 5126,
      "count": 4685,
      "max": [
        0.49694448709487915,
        0.9972487688064575
      ],
      "min": [
        0.002751222113147378,
        0.5027512311935425
      ],
      "type": "VEC2"
    },
    {
      "bufferView": 1,
      "byteOffset": 37480,
      "componentType": 5126,
      "count": 4685,
      "max": [
        0.0,
        0.0
      ],
      "min": [
        0.0,
        0.0
      ],
      "type": "VEC2"
    },
    {
      "bufferView": 0,
      "componentType": 5125,
      "count": 9507,
      "type": "SCALAR"
    },
    {
      "bufferView": 2,
      "byteOffset": 112440,
      "componentType": 5126,
      "count": 343,
      "max": [
        0.39753857254981995,
        1.1084439754486084,
        -1.565745234489441
      ],
      "min": [
        -0.9347671270370483,
        -0.8770816922187805,
        -2.3838515281677246
      ],
      "type": "VEC3"
    },
    {
      "bufferView": 2,
      "byteOffset": 116556,
      "componentType": 5126,
      "count": 343,
      "max": [
        0.9961984157562256,
        0.9999825954437256,
        1.0
      ],
      "min": [
        -0.9961983561515808,
        -1.0,
        -1.0
      ],
      "type": "VEC3"
    },
    {
      "bufferView": 3,
      "byteOffset": 74960,
      "componentType": 5126,
      "count": 343,
      "max": [
        0.9996166825294495,
        0.9890714287757874,
        0.9994810819625854,
        1.0
      ],
      "min": [
        -0.9999998807907104,
        -0.9703208208084106,
        -0.999989926815033,
        -1.0
      ],
      "type": "VEC4"
    },
    {
      "bufferView": 1,
      "byteOffset": 74960,
      "componentType": 5126,
      "count": 343,
      "max": [
        0.6245008707046509,
        0.9974497556686401
      ],
      "min": [
        0.5004991292953491,
        0.8754991292953491
      ],
      "type": "VEC2"
    },
    {
      "bufferView": 1,
      "byteOffset": 77704,
      "componentType": 5126,
      "count": 343,
      "max": [
        0.0,
        0.0
      ],
      "min": [
        0.0,
        0.0
      ],
      "type": "VEC2"
    },
    {
      "bufferView": 0,
      "byteOffset": 38028,
      "componentType": 5125,
      "count": 774,
      "type": "SCALAR"
    },
    {
      "bufferView": 2,
      "byteOffset": 120672,
      "componentType": 5126,
      "count": 158,
      "max": [
        -0.31394222378730774,
        0.7707729339599609,
        0.08156263828277588
      ],
      "min": [
        -0.4047951400279999,
        -2.926817330717313e-07,
        -0.08156242966651917
      ],
      "type": "VEC3"
    },
    {
      "bufferView": 2,
      "byteOffset": 122568,
      "componentType": 5126,
      "count": 158,
      "max": [
        1.0,
        1.0,
        1.0
      ],
      "min": [
        -1.0,
        -1.0,
        -1.0
      ],
      "type": "VEC3"
    },
    {
      "bufferView": 3,
      "byteOffset": 80448,
      "componentType": 5126,
      "count": 158,
      "max": [
        1.0,
        0.039141252636909485,
        1.0,
        1.0
      ],
      "min": [
        -1.0,
        -0.39337173104286194,
        -1.0,
        1.0
      ],
      "type": "VEC4"
    },
    {
      "bufferView": 1,
      "byteOffset": 80448,
      "componentType": 5126,
      "count": 158,
      "max": [
        0.5618358254432678,
        0.56223464012146
      ],
      "min": [
        0.5002653002738953,
        0.50026535987854
      ],
      "type": "VEC2"
    },
    {
      "bufferView": 1,
      "byteOffset": 81712,
      "componentType": 5126,
      "count": 158,
      "max": [
        0.0,
        0.0
      ],
      "min": [
        0.0,
        0.0
      ],
      "type": "VEC2"
    },
    {
      "bufferView": 0,
      "byteOffset": 41124,
      "componentType": 5125,
      "count": 282,
      "type": "SCALAR"
    },
    {
      "bufferView": 2,
      "byteOffset": 124464,
      "componentType": 5126,
      "count": 464,
      "max": [
        1.1313046216964722,
        2.759998083114624,
        9.864775307732998e-08
      ],
      "min": [
        -1.1313046216964722,
        -2.759997606277466,
        -1.1649396419525146
      ],
      "type": "VEC3"
    },
    {
      "bufferView": 2,
      "byteOffset": 130032,
      "componentType": 5126,
      "count": 464,
      "max": [
        1.0,
        0.9982959628105164,
        0.9999955892562866
      ],
      "min": [
        -1.0,
        -0.9984517693519592,
        -0.9999960660934448
      ],
      "type": "VEC3"
    },
    {
      "bufferView": 3,
      "byteOffset": 82976,
      "componentType": 5126,
      "count": 464,
      "max": [
        2.4529920210625278e-06,
        0.9999960064888,
        0.9984517693519592,
        1.0
      ],
      "min": [
        -2.4453304376947926e-06,
        -1.0,
        -0.9966656565666199,
        -1.0
      ],
      "type": "VEC4"
    },
    {
      "bufferView": 1,
      "byteOffset": 82976,
      "componentType": 5126,
      "count": 464,
      "max": [
        4.057570457458496,
        0.5279022455215454
      ],
      "min": [
        0.047737620770931244,
        0.01899699866771698
      ],
      "type": "VEC2"
    },
    {
      "bufferView": 1,
      "byteOffset": 86688,
      "componentType": 5126,
      "count": 464,
      "max": [
        0.0,
        0.0
      ],
      "min": [
        0.0,
        0.0
      ],
      "type": "VEC2"
    },
    {
      "bufferView": 0,
      "byteOffset": 42252,
      "componentType": 5125,
      "count": 1344,
      "type": "SCALAR"
    }
  ],
  "asset": {
    "extras": {
      "author": "snrnsrk5 (https://sketchfab.com/snrnsrk5)",
      "license": "CC-BY-4.0 (http://creativecommons.org/licenses/by/4.0/)",
      "source": "https://sketchfab.com/3d-models/type-97-chi-ha-d3568f32ec4440848e243e4b893a8ba6",
      "title": "Type 97 Chi-Ha"
    },
    "generator": "Sketchfab-15.20.0",
    "version": "2.0"
  },
  "bufferViews": [
    {
      "buffer": 0,
      "byteLength": 47628,
      "name": "floatBufferViews",
      "target": 34963
    },
    {
      "buffer": 0,
      "byteLength": 90400,
      "byteOffset": 47628,
      "byteStride": 8,
      "name": "floatBufferViews",
      "target": 34962
    },
    {
      "buffer": 0,
      "byteLength": 135600,
      "byteOffset": 138028,
      "byteStride": 12,
      "name": "floatBufferViews",
      "target": 34962
    },
    {
      "buffer": 0,
      "byteLength": 90400,
      "byteOffset": 273628,
      "byteStride": 16,
      "name": "floatBufferViews",
      "target": 34962
    }
  ],
  "buffers": [
    {
      "byteLength": 364028,
      "uri": "scene.bin"
    }
  ],
  "extensionsUsed": [
    "KHR_materials_specular"
  ],
  "images": [
    {
      "uri": "textures/Type_97_baseColor.png"
    },
    {
      "uri": "textures/Type_97_normal.png"
    },
    {
      "uri": "textures/Track_baseColor.png"
    },
    {
      "uri": "textures/Track_normal.png"
    }
  ],
  "materials": [
    {
      "doubleSided": true,
      "extensions": {
        "KHR_materials_specular": {
          "specularColorFactor": [
            1.0,
            1.0,
            1.0
          ],
          "specularFactor": 0.0
        }
      },
      "name": "Type_97",
      "normalTexture": {
        "index": 1
      },
      "pbrMetallicRoughness": {
        "baseColorTexture": {
          "index": 0
        },
        "metallicFactor": 0.0,
        "roughnessFactor": 0.0
      }
    },
    {
      "doubleSided": true,
      "extensions": {
        "KHR_materials_specular": {
          "specularColorFactor": [
            1.0,
            1.0,
            1.0
          ],
          "specularFactor": 0.0
        }
      },
      "name": "Track",
      "normalTexture": {
        "index": 3
      },
      "pbrMetallicRoughness": {
        "baseColorTexture": {
          "index": 2
        },
        "metallicFactor": 0.0,
        "roughnessFactor": 0.0
      }
    }
  ],
  "meshes": [
    {
      "name": "Object_0",
      "primitives": [
        {
          "attributes": {
            "NORMAL": 1,
            "POSITION": 0,
            "TANGENT": 2,
            "TEXCOORD_0": 3,
            "TEXCOORD_1": 4
          },
          "indices": 5,
          "material": 0,
          "mode": 4
        }
      ]
    },
    {
      "name": "Object_1",
      "primitives": [
        {
          "attributes": {
            "NORMAL": 7,
            "POSITION": 6,
            "TANGENT": 8,
            "TEXCOORD_0": 9,
            "TEXCOORD_1": 10
          },
          "indices": 11,
          "material": 0,
          "mode": 4
        }
      ]
    },
    {
      "name": "Object_2",
      "primitives": [
        {
          "attributes": {
            "NORMAL": 13,
            "POSITION": 12,
            "TANGENT": 14,
            "TEXCOORD_0": 15,
            "TEXCOORD_1": 16
          },
          "indices": 17,
          "material": 0,
          "mode": 4
        }
      ]
    },
    {
      "name": "Object_3",
      "primitives": [
        {
          "attributes": {
            "NORMAL": 19,
            "POSITION": 18,
            "TANGENT": 20,
            "TEXCOORD_0": 21,
            "TEXCOORD_1": 22
          },
          "indices": 23,
          "material": 1,
          "mode": 4
        }
      ]
    }
  ],
  "nodes": [
    {
      "children": [
        1
      ],
      "matrix": [
        1.0,
        0.0,
        0.0,
        0.0,
        0.0,
        2.220446049250313e-16,
        -1.0,
        0.0,
        0.0,
        1.0,
        2.220446049250313e-16,
        0.0,
        0.0,
        0.0,
        0.0,
        1.0
      ],
      "name": "Sketchfab_model"
    },
    {
      "children": [
        2
      ],
      "name": "root"
    },
    {
      "children": [
        3,
        5,
        7,
        9
      ],
      "matrix": [
        1.0,
        0.0,
        0.0,
        0.0,
        0.0,
        2.220446049250313e-16,
        1.0,
        0.0,
        0.0,
        -1.0,
        2.220446049250313e-16,
        0.0,
        0.0,
        0.0,
        0.0,
        1.0
      ],
      "name": "GLTF_SceneRootNode"
    },
    {
      "children": [
        4
      ],
      "matrix": [
        -0.9999999999999944,
        7.549790336464297e-08,
        7.549790336464297e-08,
        0.0,
        -7.549790336464297e-08,
        2.7755575615628914e-15,
        -0.9999999999999972,
        0.0,
        -7.549790336464297e-08,
        -0.9999999999999972,
        2.7755575615628914e-15,
        0.0,
        0.0,
        0.0,
        -0.0515596866607666,
        1.0
      ],
      "name": "Type 97 Hull_1_3"
    },
    {
      "mesh": 0,
      "name": "Object_4"
    },
    {
      "children": [
        6
      ],
      "matrix": [
        -0.9999999999999944,
        7.549790336464297e-08,
        7.549790336464297e-08,
        0.0,
        -7.549790336464297e-08,
        2.7755575615628914e-15,
        -0.9999999999999972,
        0.0,
        -7.549790336464297e-08,
        -0.9999999999999972,
        2.7755575615628914e-15,
        0.0,
        0.0009517669677734375,
        0.0,
        -0.0515594482421875,
        1.0
      ],
      "name": "Type 97 Turret_1_4"
    },
    {
      "mesh": 1,
      "name": "Object_6"
    },
    {
      "children": [
        8
      ],
      "matrix": [
        -0.9999999999999942,
        7.549790872344085e-08,
        7.549787053946279e-08,
        0.0,
        -7.549790872344085e-08,
        -5.057621879078766e-07,
        -0.9999999999998691,
        0.0,
        -7.549787053946279e-08,
        -0.9999999999998691,
        5.057621936810364e-07,
        0.0,
        0.0,
        1.7630075216293335,
        -1.0427885055541992,
        1.0
      ],
      "name": "Type 97 Barrel_1_5"
    },
    {
      "mesh": 2,
      "name": "Object_8"
    },
    {
      "children": [
        10
      ],
      "matrix": [
        -0.9999999999999944,
        7.549790336464297e-08,
        7.549790336464297e-08,
        0.0,
        -7.549790336464297e-08,
        2.7755575615628914e-15,
        -0.9999999999999972,
        0.0,
        -7.549790336464297e-08,
        -0.9999999999999972,
        2.7755575615628914e-15,
        0.0,
        0.0,
        0.0,
        -0.0515596866607666,
        1.0
      ],
      "name": "Type 97 Track_1_6"
    },
    {
      "mesh": 3,
      "name": "Object_10"
    }
  ],
  "samplers": [
    {
      "magFilter": 9729,
      "minFilter": 9987,
      "wrapS": 10497,
      "wrapT": 10497
    }
  ],
  "scene": 0,
  "scenes": [
    {
      "name": "Sketchfab_Scene",
      "nodes": [
        0
      ]
    }
  ],
  "textures": [
    {
      "sampler": 0,
      "source": 0
    },
    {
      "sampler": 0,
      "source": 1
    },
    {
      "sampler": 0,
      "source": 2
    },
    {
      "sampler": 0,
      "source": 3
    }
  ]
}
